<svg xmlns="http://www.w3.org/2000/svg" version="1.1" xmlns:xlink="http://www.w3.org/1999/xlink" xmlns:svgjs="http://svgjs.dev/svgjs" width="2000" height="2000" viewBox="0 0 2000 2000"><g transform="matrix(1,0,0,1,0,0)"><svg viewBox="0 0 280 280" data-background-color="#000000" preserveAspectRatio="xMidYMid meet" height="2000" width="2000" xmlns="http://www.w3.org/2000/svg" xmlns:xlink="http://www.w3.org/1999/xlink"><g id="tight-bounds" transform="matrix(1,0,0,1,0,0)"><svg viewBox="0 0 280 280" height="280" width="280"><g><svg viewBox="0 0 280 280" height="280" width="280"><g><svg viewBox="0 0 280 280" height="280" width="280"><g id="textblocktransform"><svg viewBox="0 0 280 280" height="280" width="280" id="textblock"><g><svg viewBox="0 0 280 280" height="280" width="280"><g transform="matrix(1,0,0,1,74.00336708925556,74.00336708925556)"><svg viewBox="0 0 131.99326582148888 131.99326582148888" height="131.99326582148888" width="131.99326582148888"><g id="icon-0"></g></svg></g><g id="text-0"></g><g id="text-1"></g></svg></g></svg></g></svg></g></svg></g><defs></defs><mask id="7160bf0f-eb79-4552-8786-db846c52cd20"><g id="SvgjsG1610"><svg viewBox="0 0 280 280" height="280" width="280"><g><svg viewBox="0 0 280 280" height="280" width="280"><g><svg viewBox="0 0 280 280" height="280" width="280"><g id="SvgjsG1609"><svg viewBox="0 0 280 280" height="280" width="280" id="SvgjsSvg1608"><g><svg viewBox="0 0 280 280" height="280" width="280"><g transform="matrix(1,0,0,1,74.00336708925556,74.00336708925556)"><svg viewBox="0 0 131.99326582148888 131.99326582148888" height="131.99326582148888" width="131.99326582148888"><g id="SvgjsG1607"><circle r="66" cx="65.99663291074444" cy="65.99663291074444" fill="black"></circle></g></svg></g><g id="SvgjsG1606"><path d="M31.143 104.258v0c-0.463 1.407-1.159 2.66-2.089 3.759-0.932 1.105-1.947 2.001-3.043 2.687v0l-1.688-2.398c0.987-0.631 1.848-1.328 2.584-2.09 0.729-0.765 1.289-1.743 1.681-2.935v0c0.427-1.3 0.449-2.371 0.066-3.213-0.381-0.849-1.003-1.415-1.865-1.698v0c-0.513-0.169-1.005-0.179-1.475-0.032-0.47 0.148-0.916 0.384-1.34 0.708-0.423 0.325-0.83 0.721-1.223 1.189-0.395 0.474-0.788 0.945-1.181 1.413v0c-0.472 0.624-0.982 1.236-1.53 1.836-0.542 0.602-1.126 1.108-1.754 1.521-0.625 0.406-1.294 0.688-2.006 0.847-0.71 0.153-1.487 0.091-2.33-0.187v0c-0.78-0.256-1.464-0.653-2.053-1.191-0.589-0.538-1.038-1.18-1.347-1.928-0.309-0.748-0.469-1.587-0.479-2.517-0.01-0.931 0.159-1.925 0.506-2.984v0c0.408-1.242 1.002-2.312 1.781-3.208 0.775-0.904 1.597-1.631 2.467-2.181v0l1.592 2.272c-0.736 0.51-1.386 1.076-1.949 1.698-0.563 0.623-0.987 1.368-1.273 2.237v0c-0.408 1.242-0.426 2.248-0.054 3.017 0.379 0.771 0.945 1.28 1.7 1.528v0c0.463 0.152 0.903 0.16 1.32 0.023 0.421-0.128 0.826-0.354 1.213-0.676 0.393-0.32 0.778-0.71 1.153-1.17 0.376-0.459 0.765-0.939 1.169-1.439v0c0.504-0.614 1.022-1.23 1.555-1.848 0.527-0.62 1.109-1.142 1.747-1.565 0.631-0.425 1.333-0.71 2.105-0.857 0.767-0.155 1.611-0.082 2.53 0.22v0c0.811 0.267 1.518 0.671 2.119 1.213 0.602 0.542 1.075 1.207 1.42 1.995 0.339 0.786 0.515 1.683 0.527 2.691 0.013 1.009-0.173 2.096-0.556 3.263z" fill="white"></path><path d="M46.654 74.162v0c-0.765 1.134-1.683 2.065-2.752 2.792-1.072 0.718-2.235 1.177-3.489 1.377-1.248 0.204-2.574 0.135-3.977-0.208-1.403-0.343-2.812-0.992-4.228-1.947v0c-1.438-0.97-2.568-2.058-3.389-3.263-0.817-1.211-1.362-2.456-1.634-3.735-0.263-1.28-0.259-2.557 0.013-3.831 0.275-1.279 0.786-2.472 1.532-3.578v0c0.765-1.134 1.62-1.966 2.565-2.496 0.945-0.53 1.896-0.919 2.852-1.167v0l0.907 2.773c-0.784 0.196-1.504 0.475-2.159 0.838-0.655 0.363-1.214 0.887-1.677 1.573v0c-0.526 0.78-0.854 1.605-0.983 2.476-0.127 0.88-0.053 1.755 0.222 2.625 0.265 0.871 0.716 1.719 1.352 2.542 0.63 0.82 1.441 1.563 2.431 2.231v0c0.99 0.668 1.974 1.143 2.951 1.424 0.983 0.285 1.917 0.392 2.802 0.321 0.894-0.073 1.721-0.332 2.481-0.778 0.769-0.447 1.414-1.058 1.936-1.833v0c0.545-0.808 0.872-1.662 0.98-2.562 0.112-0.906 0.116-1.789 0.012-2.648v0l2.812 0.037c0.154 1.239 0.109 2.464-0.137 3.675-0.251 1.207-0.725 2.328-1.423 3.362z" fill="white"></path><path d="M65.44 52.742l-2.59 2.359-13.981-15.345 2.59-2.359zM47.315 35.39v0c-0.503 0.458-1.074 0.689-1.711 0.693-0.633-0.001-1.17-0.243-1.61-0.727v0c-0.463-0.508-0.661-1.072-0.595-1.693 0.072-0.625 0.359-1.167 0.862-1.624v0c0.508-0.463 1.074-0.699 1.698-0.708 0.629-0.013 1.175 0.234 1.638 0.742v0c0.44 0.483 0.629 1.042 0.566 1.677-0.058 0.63-0.341 1.177-0.848 1.64z" fill="white"></path><path d="M90.179 37.746v0c-1.24 0.638-2.513 1.016-3.819 1.133-1.303 0.108-2.567-0.044-3.792-0.456-1.22-0.415-2.363-1.098-3.431-2.05-1.071-0.957-1.997-2.195-2.78-3.714v0c-0.782-1.519-1.249-3.001-1.4-4.446-0.151-1.446-0.056-2.782 0.288-4.01 0.346-1.237 0.897-2.331 1.653-3.283 0.762-0.955 1.673-1.706 2.735-2.253v0c1.163-0.599 2.312-0.932 3.449-0.999 1.133-0.073 2.204 0.111 3.211 0.553 1.014 0.439 1.957 1.105 2.831 1.998 0.882 0.897 1.662 2.004 2.341 3.321v0c0.168 0.326 0.327 0.65 0.477 0.97 0.153 0.326 0.261 0.616 0.323 0.869v0l-12.458 6.416c1.142 1.911 2.561 3.158 4.257 3.74 1.699 0.589 3.436 0.426 5.21-0.487v0c0.884-0.455 1.631-1.009 2.241-1.66 0.61-0.652 1.145-1.37 1.603-2.155v0l2.162 1.488c-0.553 0.923-1.224 1.828-2.013 2.714-0.795 0.89-1.825 1.66-3.088 2.311zM78.617 29.57v0l9.877-5.086c-0.965-1.875-2.099-3.092-3.4-3.653-1.296-0.564-2.668-0.473-4.116 0.273v0c-0.658 0.339-1.219 0.789-1.68 1.35-0.465 0.555-0.811 1.202-1.038 1.941-0.224 0.746-0.314 1.554-0.271 2.425 0.052 0.874 0.262 1.79 0.628 2.75z" fill="white"></path><path d="M117.871 28.021l-3.445 0.633-3.747-20.419 2.855-0.523 0.834 2.879 0.128-0.023c0.798-1.157 1.679-2.164 2.641-3.019 0.955-0.86 2.147-1.422 3.579-1.684v0c2.153-0.395 3.851-0.011 5.096 1.151 1.238 1.164 2.098 3.061 2.581 5.693v0l2.375 12.946-3.446 0.632-2.29-12.483c-0.354-1.93-0.918-3.264-1.691-4.004-0.768-0.748-1.825-0.998-3.171-0.752v0c-1.07 0.196-1.959 0.638-2.667 1.324-0.716 0.681-1.498 1.635-2.345 2.862v0z" fill="white"></path><path d="M157.196 27.525v0c-1.1-0.131-2.007-0.41-2.723-0.838-0.709-0.427-1.259-0.966-1.652-1.618-0.394-0.645-0.639-1.407-0.736-2.285-0.098-0.872-0.086-1.815 0.034-2.828v0l1.358-11.41-3.061-0.364 0.313-2.634 3.255 0.176 1.115-5.724 2.922 0.348-0.687 5.774 5.556 0.662-0.339 2.842-5.556-0.661-1.362 11.45c-0.151 1.272-0.037 2.284 0.344 3.034 0.388 0.745 1.176 1.188 2.362 1.33v0c0.371 0.044 0.775 0.035 1.213-0.027 0.437-0.062 0.833-0.143 1.188-0.242v0l0.363 2.704c-0.587 0.132-1.221 0.238-1.902 0.318-0.687 0.073-1.356 0.07-2.005-0.007z" fill="white"></path><path d="M181.939 33.41l-3.313-1.139 6.75-19.631 3.313 1.139zM188.46 9.181v0c-0.644-0.221-1.12-0.611-1.429-1.169-0.303-0.556-0.348-1.143-0.135-1.761v0c0.223-0.65 0.623-1.095 1.199-1.334 0.583-0.237 1.196-0.245 1.84-0.024v0c0.65 0.223 1.129 0.607 1.435 1.15 0.314 0.545 0.359 1.143 0.135 1.793v0c-0.213 0.618-0.612 1.052-1.199 1.302-0.581 0.252-1.196 0.266-1.846 0.043z" fill="white"></path><path d="M207.574 48.354v0c-0.8-0.544-1.5-1.301-2.098-2.272-0.595-0.977-1.04-2.062-1.335-3.254v0l-0.1-0.068-1.446 1.595-2.335-1.586 17.092-25.162 2.898 1.969-4.657 6.855-2.189 3.063c1.243-0.156 2.481-0.15 3.714 0.018 1.231 0.159 2.33 0.566 3.296 1.223v0c1.109 0.754 1.949 1.626 2.518 2.617 0.563 0.988 0.876 2.059 0.938 3.215 0.053 1.157-0.135 2.372-0.565 3.646-0.439 1.275-1.106 2.572-2.002 3.891v0c-0.99 1.457-2.078 2.626-3.265 3.506-1.185 0.889-2.391 1.501-3.619 1.837-1.228 0.335-2.43 0.406-3.605 0.213-1.172-0.199-2.252-0.634-3.24-1.306zM208.731 45.583v0c0.707 0.48 1.469 0.764 2.288 0.852 0.819 0.089 1.642-0.006 2.468-0.284 0.83-0.283 1.653-0.765 2.469-1.444 0.826-0.681 1.599-1.552 2.319-2.612v0c0.641-0.944 1.143-1.861 1.506-2.751 0.363-0.891 0.55-1.736 0.561-2.536 0.011-0.799-0.166-1.549-0.53-2.247-0.373-0.697-0.96-1.318-1.761-1.862v0c-1.391-0.945-3.451-1.207-6.181-0.787v0l-6.119 9.009c0.306 1.176 0.737 2.151 1.293 2.923 0.556 0.773 1.118 1.352 1.687 1.739z" fill="white"></path><path d="M231.382 71.601v0c-1.368-1.751-1.823-3.445-1.365-5.081 0.454-1.641 1.735-3.286 3.843-4.933v0l10.364-8.097 2.182 2.793-9.994 7.807c-1.551 1.212-2.48 2.327-2.785 3.344-0.306 1.018-0.037 2.066 0.805 3.144v0c0.665 0.852 1.471 1.433 2.417 1.744 0.946 0.311 2.209 0.48 3.788 0.508v0l11.61-9.07 2.157 2.761-16.359 12.779-1.787-2.287 2.371-2.233-0.08-0.103c-1.49-0.064-2.834-0.305-4.033-0.723-1.194-0.422-2.238-1.207-3.134-2.353z" fill="white"></path><path d="M238.495 100.583v0c-0.16-0.453-0.272-0.88-0.336-1.282-0.071-0.4-0.093-0.784-0.069-1.154v0l2.841-0.283c0.025 0.232 0.051 0.495 0.078 0.79 0.026 0.295 0.082 0.562 0.166 0.801v0c0.398 1.126 1.119 1.904 2.164 2.335 1.046 0.437 2.245 0.643 3.594 0.618v0l1.61-0.07 16.829-14.795 1.212 3.425-9.422 7.823c-0.751 0.598-1.546 1.233-2.384 1.905-0.832 0.669-1.655 1.314-2.468 1.934v0l0.056 0.161c0.992-0.018 2.02-0.063 3.084-0.135 1.064-0.072 2.071-0.127 3.021-0.166v0l12.074-0.321 1.138 3.218-23.791 0.122c-1.087-0.012-2.125-0.084-3.113-0.215-0.982-0.134-1.879-0.39-2.692-0.768-0.813-0.378-1.528-0.879-2.145-1.503-0.613-0.633-1.095-1.446-1.447-2.44z" fill="white"></path><path d="M2.263 142.132c0-6.417 5.202-11.62 11.619-11.62 6.417 0 11.62 5.202 11.62 11.62 0 6.417-5.202 11.62-11.62 11.62-6.417 0-11.62-5.202-11.619-11.62z" fill="white"></path><path d="M254.498 142.132c0-6.417 5.202-11.62 11.62-11.62 6.417 0 11.62 5.202 11.619 11.62 0 6.417-5.202 11.62-11.619 11.62-6.417 0-11.62-5.202-11.62-11.62z" fill="white"></path></g><g id="SvgjsG1605"><path d="M9.864 187.866v0c-0.51-1.525-0.716-3.067-0.619-4.627 0.095-1.566 0.399-3.004 0.911-4.315v0l3.023 0.994c-0.452 1.193-0.749 2.358-0.889 3.495-0.14 1.137 0.006 2.352 0.438 3.643v0c0.47 1.405 1.146 2.354 2.028 2.847 0.88 0.487 1.789 0.573 2.726 0.26v0c0.557-0.186 0.992-0.494 1.306-0.923 0.312-0.435 0.543-0.931 0.695-1.488 0.16-0.553 0.258-1.163 0.295-1.83 0.037-0.667 0.076-1.331 0.116-1.991v0c0.01-0.855 0.055-1.718 0.136-2.589 0.079-0.878 0.262-1.699 0.548-2.463 0.28-0.762 0.679-1.441 1.198-2.037 0.518-0.596 1.233-1.046 2.145-1.35v0c0.848-0.284 1.701-0.383 2.56-0.297 0.859 0.086 1.666 0.354 2.422 0.805 0.756 0.451 1.437 1.078 2.044 1.881 0.615 0.808 1.114 1.784 1.496 2.929v0c0.451 1.348 0.63 2.663 0.539 3.947-0.092 1.283-0.338 2.449-0.74 3.498v0l-2.862-0.953c0.313-0.914 0.515-1.826 0.605-2.735 0.088-0.916-0.025-1.842-0.339-2.779v0c-0.451-1.348-1.092-2.235-1.923-2.66-0.823-0.421-1.646-0.494-2.47-0.219v0c-0.494 0.165-0.879 0.442-1.157 0.83-0.28 0.382-0.486 0.841-0.616 1.378-0.132 0.53-0.213 1.12-0.242 1.769-0.031 0.644-0.061 1.312-0.09 2.004v0c-0.035 0.863-0.085 1.735-0.149 2.615-0.062 0.886-0.235 1.718-0.517 2.494-0.274 0.781-0.696 1.485-1.267 2.113-0.569 0.634-1.354 1.118-2.353 1.452v0c-0.88 0.294-1.755 0.401-2.627 0.319-0.88-0.086-1.721-0.36-2.523-0.824-0.809-0.461-1.545-1.126-2.208-1.995-0.672-0.873-1.218-1.939-1.64-3.198z" fill="black"></path><path d="M28.329 223.45v0c-0.833-1.225-1.398-2.523-1.694-3.896-0.292-1.367-0.289-2.721 0.01-4.061 0.3-1.35 0.905-2.661 1.815-3.934 0.91-1.273 2.132-2.43 3.665-3.474v0c1.561-1.062 3.114-1.763 4.659-2.103 1.544-0.34 3.016-0.389 4.415-0.147 1.403 0.248 2.69 0.769 3.86 1.563 1.171 0.785 2.166 1.779 2.984 2.982v0c0.837 1.23 1.332 2.427 1.485 3.59 0.163 1.164 0.174 2.279 0.034 3.342v0l-3.167-0.207c0.122-0.865 0.129-1.702 0.024-2.51-0.1-0.812-0.402-1.587-0.904-2.326v0c-0.574-0.844-1.279-1.507-2.115-1.987-0.826-0.479-1.734-0.758-2.723-0.836-0.989-0.078-2.024 0.037-3.106 0.346-1.076 0.304-2.152 0.822-3.228 1.554v0c-1.07 0.728-1.946 1.529-2.626 2.403-0.675 0.871-1.158 1.768-1.449 2.693-0.286 0.921-0.358 1.858-0.218 2.811 0.14 0.954 0.497 1.853 1.071 2.697v0c0.589 0.866 1.319 1.536 2.19 2.009 0.865 0.477 1.752 0.838 2.661 1.083v0l-1.162 2.812c-1.319-0.338-2.537-0.877-3.654-1.618-1.119-0.732-2.061-1.66-2.827-2.786z" fill="black"></path><path d="M51.073 247.719l-2.81-2.563 15.187-16.644 2.81 2.564zM68.015 226.391v0c-0.547-0.499-0.853-1.09-0.917-1.772-0.065-0.691 0.141-1.298 0.618-1.821v0c0.499-0.547 1.092-0.815 1.777-0.804 0.676 0.012 1.288 0.267 1.834 0.766v0c0.552 0.504 0.865 1.092 0.938 1.764 0.074 0.681-0.139 1.296-0.638 1.843v0c-0.477 0.522-1.062 0.783-1.757 0.782-0.685-0.002-1.303-0.254-1.855-0.758z" fill="black"></path><path d="M79.649 266.601v0c-1.344-0.698-2.476-1.589-3.394-2.674-0.915-1.091-1.574-2.305-1.977-3.643-0.401-1.343-0.516-2.786-0.347-4.329 0.179-1.546 0.695-3.143 1.55-4.79v0c0.855-1.646 1.875-2.989 3.06-4.027 1.186-1.039 2.431-1.794 3.737-2.267 1.305-0.473 2.619-0.671 3.939-0.594 1.315 0.074 2.55 0.41 3.705 1.009v0c1.262 0.655 2.279 1.461 3.052 2.419 0.773 0.958 1.284 2.023 1.532 3.197 0.242 1.171 0.244 2.427 0.006 3.769-0.241 1.333-0.732 2.714-1.472 4.142v0c-0.184 0.355-0.375 0.7-0.571 1.034-0.19 0.337-0.376 0.617-0.559 0.838v0l-13.503-7.009c-0.968 2.212-1.18 4.252-0.639 6.119 0.548 1.871 1.781 3.304 3.7 4.3v0c0.959 0.498 1.92 0.812 2.882 0.943 0.953 0.134 1.921 0.159 2.905 0.076v0l0.046 2.843c-1.168 0.093-2.392 0.067-3.67-0.078-1.287-0.142-2.615-0.568-3.982-1.278zM79.63 251.233v0l10.696 5.551c1.054-2.031 1.424-3.802 1.11-5.311-0.318-1.503-1.258-2.66-2.822-3.471v0c-0.711-0.369-1.46-0.585-2.246-0.648-0.79-0.057-1.584 0.046-2.382 0.309-0.798 0.263-1.568 0.69-2.312 1.281-0.743 0.592-1.425 1.354-2.044 2.289z" fill="black"></path><path d="M113.46 277.389l-3.739-0.698 4.133-22.148 3.099 0.579-0.28 3.246 0.138 0.026c1.261-0.864 2.545-1.544 3.853-2.04 1.301-0.497 2.726-0.601 4.273-0.313v0c2.342 0.437 3.918 1.485 4.729 3.143 0.803 1.664 0.938 3.922 0.405 6.775v0l-2.62 14.041-3.739-0.698 2.527-13.539c0.392-2.099 0.339-3.673-0.157-4.723-0.496-1.05-1.473-1.71-2.929-1.982v0c-1.154-0.215-2.225-0.117-3.212 0.297-0.993 0.412-2.155 1.074-3.487 1.986v0z" fill="black"></path><path d="M159.868 279.28v0c-1.2 0.14-2.229 0.072-3.087-0.204-0.859-0.276-1.577-0.706-2.156-1.29-0.579-0.584-1.031-1.324-1.357-2.22-0.32-0.897-0.544-1.898-0.673-3.005v0l-1.445-12.388-3.321 0.388-0.332-2.853 3.472-0.637-0.263-6.318 3.171-0.37 0.731 6.263 6.035-0.704 0.359 3.082-6.034 0.704 1.45 12.437c0.161 1.379 0.54 2.416 1.139 3.112 0.591 0.69 1.533 0.96 2.826 0.809v0c0.398-0.046 0.818-0.156 1.261-0.328 0.449-0.18 0.847-0.368 1.194-0.563v0l1.079 2.767c-0.591 0.291-1.238 0.561-1.941 0.81-0.702 0.257-1.405 0.426-2.108 0.508z" fill="black"></path><path d="M188.176 271.64l-3.608 1.204-7.132-21.372 3.608-1.204zM177.808 246.452v0c-0.703 0.234-1.367 0.214-1.994-0.063-0.635-0.28-1.065-0.756-1.288-1.427v0c-0.234-0.703-0.18-1.35 0.163-1.943 0.34-0.585 0.861-0.994 1.564-1.229v0c0.709-0.237 1.375-0.223 1.997 0.04 0.631 0.268 1.064 0.753 1.298 1.456v0c0.224 0.671 0.166 1.309-0.173 1.915-0.335 0.597-0.857 1.014-1.567 1.251z" fill="black"></path><path d="M219.289 255.391v0c-0.879 0.582-1.93 0.971-3.154 1.166-1.22 0.2-2.491 0.198-3.811-0.007v0l-0.117 0.077 1.016 2.113-2.553 1.692-18.237-27.515 3.17-2.101 4.966 7.491 2.172 3.46c0.357-1.309 0.871-2.551 1.543-3.724 0.675-1.168 1.541-2.102 2.597-2.803v0c1.207-0.8 2.424-1.283 3.652-1.448 1.227-0.165 2.434-0.036 3.619 0.388 1.187 0.414 2.331 1.101 3.431 2.06 1.1 0.96 2.128 2.16 3.083 3.601v0c1.058 1.596 1.786 3.171 2.183 4.725 0.397 1.554 0.515 3.017 0.352 4.39-0.167 1.367-0.591 2.605-1.273 3.713-0.68 1.099-1.56 2.007-2.639 2.722zM216.977 253.081v0c0.773-0.512 1.372-1.161 1.796-1.947 0.428-0.78 0.671-1.645 0.729-2.596 0.062-0.946-0.082-1.971-0.431-3.077-0.343-1.109-0.898-2.243-1.665-3.4v0c-0.682-1.029-1.394-1.91-2.136-2.643-0.748-0.729-1.523-1.264-2.324-1.605-0.802-0.341-1.628-0.47-2.478-0.387-0.85 0.083-1.714 0.416-2.593 0.998v0c-1.518 1.006-2.63 2.964-3.336 5.874v0l6.536 9.861c1.299 0.172 2.454 0.139 3.465-0.099 1.007-0.243 1.82-0.57 2.437-0.979z" fill="black"></path><path d="M248.497 227.594v0c-1.506 1.889-3.181 2.797-5.027 2.726-1.845-0.062-3.904-1-6.179-2.814v0l-11.162-8.896 2.402-3.014 10.762 8.579c1.67 1.331 3.08 2.029 4.232 2.093 1.153 0.074 2.193-0.471 3.121-1.634v0c0.732-0.918 1.139-1.916 1.222-2.994 0.088-1.074-0.051-2.447-0.416-4.12v0l-12.507-9.97 2.371-2.974 17.618 14.044-1.965 2.465-2.955-1.946-0.087 0.11c0.308 1.594 0.392 3.073 0.251 4.437-0.139 1.374-0.7 2.676-1.681 3.908z" fill="black"></path><path d="M275.848 198.499v0c-0.179 0.496-0.377 0.935-0.594 1.318-0.223 0.381-0.469 0.717-0.738 1.01v0l-2.581-1.721c0.14-0.212 0.301-0.448 0.48-0.71 0.176-0.27 0.31-0.534 0.403-0.79v0c0.443-1.224 0.377-2.376-0.197-3.457-0.581-1.083-1.448-2.078-2.603-2.985v0l-1.389-1.045-24.309 0.819 1.338-3.699 13.291-0.078c1.044 0.016 2.147 0.028 3.308 0.036 1.167 0.011 2.301 0.034 3.401 0.07v0l0.062-0.169c-0.838-0.665-1.728-1.334-2.669-2.009-0.944-0.668-1.827-1.314-2.652-1.938v0l-10.356-8.035 1.263-3.492 20.042 16.275c0.912 0.756 1.735 1.529 2.471 2.32 0.729 0.789 1.308 1.623 1.735 2.501 0.421 0.876 0.672 1.79 0.754 2.742 0.081 0.952-0.072 1.964-0.46 3.037z" fill="black"></path></g></svg></g></svg></g></svg></g></svg></g><defs><mask></mask></defs></svg><rect width="280" height="280" fill="black" stroke="none" visibility="hidden"></rect></g></mask><linearGradient x1="0" x2="1" y1="0.578" y2="0.595" id="c84ca508-238c-4669-b1ac-69773f2f0945"><stop stop-color="#6ee2f5" offset="0"></stop><stop stop-color="#6454f0" offset="1"></stop></linearGradient><rect width="280" height="280" fill="url(#c84ca508-238c-4669-b1ac-69773f2f0945)" mask="url(#7160bf0f-eb79-4552-8786-db846c52cd20)" data-fill-palette-color="primary"></rect><mask id="03e111b2-77c3-435a-b8f2-6b29c92f3816"><g id="SvgjsG1622"><svg viewBox="0 0 280 280" height="280" width="280"><g><svg viewBox="0 0 280 280" height="280" width="280"><g><svg viewBox="0 0 280 280" height="280" width="280"><g id="SvgjsG1621"><svg viewBox="0 0 280 280" height="280" width="280" id="SvgjsSvg1620"><g><svg viewBox="0 0 280 280" height="280" width="280"><g transform="matrix(1,0,0,1,74.00336708925556,74.00336708925556)"><svg viewBox="0 0 131.99326582148888 131.99326582148888" height="131.99326582148888" width="131.99326582148888"><g id="SvgjsG1619"><circle r="66" cx="65.99663291074444" cy="65.99663291074444" fill="black"></circle></g></svg></g><g id="SvgjsG1618"></g><g id="SvgjsG1617"><path d="M9.864 187.866v0c-0.51-1.525-0.716-3.067-0.619-4.627 0.095-1.566 0.399-3.004 0.911-4.315v0l3.023 0.994c-0.452 1.193-0.749 2.358-0.889 3.495-0.14 1.137 0.006 2.352 0.438 3.643v0c0.47 1.405 1.146 2.354 2.028 2.847 0.88 0.487 1.789 0.573 2.726 0.26v0c0.557-0.186 0.992-0.494 1.306-0.923 0.312-0.435 0.543-0.931 0.695-1.488 0.16-0.553 0.258-1.163 0.295-1.83 0.037-0.667 0.076-1.331 0.116-1.991v0c0.01-0.855 0.055-1.718 0.136-2.589 0.079-0.878 0.262-1.699 0.548-2.463 0.28-0.762 0.679-1.441 1.198-2.037 0.518-0.596 1.233-1.046 2.145-1.35v0c0.848-0.284 1.701-0.383 2.56-0.297 0.859 0.086 1.666 0.354 2.422 0.805 0.756 0.451 1.437 1.078 2.044 1.881 0.615 0.808 1.114 1.784 1.496 2.929v0c0.451 1.348 0.63 2.663 0.539 3.947-0.092 1.283-0.338 2.449-0.74 3.498v0l-2.862-0.953c0.313-0.914 0.515-1.826 0.605-2.735 0.088-0.916-0.025-1.842-0.339-2.779v0c-0.451-1.348-1.092-2.235-1.923-2.66-0.823-0.421-1.646-0.494-2.47-0.219v0c-0.494 0.165-0.879 0.442-1.157 0.83-0.28 0.382-0.486 0.841-0.616 1.378-0.132 0.53-0.213 1.12-0.242 1.769-0.031 0.644-0.061 1.312-0.09 2.004v0c-0.035 0.863-0.085 1.735-0.149 2.615-0.062 0.886-0.235 1.718-0.517 2.494-0.274 0.781-0.696 1.485-1.267 2.113-0.569 0.634-1.354 1.118-2.353 1.452v0c-0.88 0.294-1.755 0.401-2.627 0.319-0.88-0.086-1.721-0.36-2.523-0.824-0.809-0.461-1.545-1.126-2.208-1.995-0.672-0.873-1.218-1.939-1.64-3.198z" fill="white"></path><path d="M28.329 223.45v0c-0.833-1.225-1.398-2.523-1.694-3.896-0.292-1.367-0.289-2.721 0.01-4.061 0.3-1.35 0.905-2.661 1.815-3.934 0.91-1.273 2.132-2.43 3.665-3.474v0c1.561-1.062 3.114-1.763 4.659-2.103 1.544-0.34 3.016-0.389 4.415-0.147 1.403 0.248 2.69 0.769 3.86 1.563 1.171 0.785 2.166 1.779 2.984 2.982v0c0.837 1.23 1.332 2.427 1.485 3.59 0.163 1.164 0.174 2.279 0.034 3.342v0l-3.167-0.207c0.122-0.865 0.129-1.702 0.024-2.51-0.1-0.812-0.402-1.587-0.904-2.326v0c-0.574-0.844-1.279-1.507-2.115-1.987-0.826-0.479-1.734-0.758-2.723-0.836-0.989-0.078-2.024 0.037-3.106 0.346-1.076 0.304-2.152 0.822-3.228 1.554v0c-1.07 0.728-1.946 1.529-2.626 2.403-0.675 0.871-1.158 1.768-1.449 2.693-0.286 0.921-0.358 1.858-0.218 2.811 0.14 0.954 0.497 1.853 1.071 2.697v0c0.589 0.866 1.319 1.536 2.19 2.009 0.865 0.477 1.752 0.838 2.661 1.083v0l-1.162 2.812c-1.319-0.338-2.537-0.877-3.654-1.618-1.119-0.732-2.061-1.66-2.827-2.786z" fill="white"></path><path d="M51.073 247.719l-2.81-2.563 15.187-16.644 2.81 2.564zM68.015 226.391v0c-0.547-0.499-0.853-1.09-0.917-1.772-0.065-0.691 0.141-1.298 0.618-1.821v0c0.499-0.547 1.092-0.815 1.777-0.804 0.676 0.012 1.288 0.267 1.834 0.766v0c0.552 0.504 0.865 1.092 0.938 1.764 0.074 0.681-0.139 1.296-0.638 1.843v0c-0.477 0.522-1.062 0.783-1.757 0.782-0.685-0.002-1.303-0.254-1.855-0.758z" fill="white"></path><path d="M79.649 266.601v0c-1.344-0.698-2.476-1.589-3.394-2.674-0.915-1.091-1.574-2.305-1.977-3.643-0.401-1.343-0.516-2.786-0.347-4.329 0.179-1.546 0.695-3.143 1.55-4.79v0c0.855-1.646 1.875-2.989 3.06-4.027 1.186-1.039 2.431-1.794 3.737-2.267 1.305-0.473 2.619-0.671 3.939-0.594 1.315 0.074 2.55 0.41 3.705 1.009v0c1.262 0.655 2.279 1.461 3.052 2.419 0.773 0.958 1.284 2.023 1.532 3.197 0.242 1.171 0.244 2.427 0.006 3.769-0.241 1.333-0.732 2.714-1.472 4.142v0c-0.184 0.355-0.375 0.7-0.571 1.034-0.19 0.337-0.376 0.617-0.559 0.838v0l-13.503-7.009c-0.968 2.212-1.18 4.252-0.639 6.119 0.548 1.871 1.781 3.304 3.7 4.3v0c0.959 0.498 1.92 0.812 2.882 0.943 0.953 0.134 1.921 0.159 2.905 0.076v0l0.046 2.843c-1.168 0.093-2.392 0.067-3.67-0.078-1.287-0.142-2.615-0.568-3.982-1.278zM79.63 251.233v0l10.696 5.551c1.054-2.031 1.424-3.802 1.11-5.311-0.318-1.503-1.258-2.66-2.822-3.471v0c-0.711-0.369-1.46-0.585-2.246-0.648-0.79-0.057-1.584 0.046-2.382 0.309-0.798 0.263-1.568 0.69-2.312 1.281-0.743 0.592-1.425 1.354-2.044 2.289z" fill="white"></path><path d="M113.46 277.389l-3.739-0.698 4.133-22.148 3.099 0.579-0.28 3.246 0.138 0.026c1.261-0.864 2.545-1.544 3.853-2.04 1.301-0.497 2.726-0.601 4.273-0.313v0c2.342 0.437 3.918 1.485 4.729 3.143 0.803 1.664 0.938 3.922 0.405 6.775v0l-2.62 14.041-3.739-0.698 2.527-13.539c0.392-2.099 0.339-3.673-0.157-4.723-0.496-1.05-1.473-1.71-2.929-1.982v0c-1.154-0.215-2.225-0.117-3.212 0.297-0.993 0.412-2.155 1.074-3.487 1.986v0z" fill="white"></path><path d="M159.868 279.28v0c-1.2 0.14-2.229 0.072-3.087-0.204-0.859-0.276-1.577-0.706-2.156-1.29-0.579-0.584-1.031-1.324-1.357-2.22-0.32-0.897-0.544-1.898-0.673-3.005v0l-1.445-12.388-3.321 0.388-0.332-2.853 3.472-0.637-0.263-6.318 3.171-0.37 0.731 6.263 6.035-0.704 0.359 3.082-6.034 0.704 1.45 12.437c0.161 1.379 0.54 2.416 1.139 3.112 0.591 0.69 1.533 0.96 2.826 0.809v0c0.398-0.046 0.818-0.156 1.261-0.328 0.449-0.18 0.847-0.368 1.194-0.563v0l1.079 2.767c-0.591 0.291-1.238 0.561-1.941 0.81-0.702 0.257-1.405 0.426-2.108 0.508z" fill="white"></path><path d="M188.176 271.64l-3.608 1.204-7.132-21.372 3.608-1.204zM177.808 246.452v0c-0.703 0.234-1.367 0.214-1.994-0.063-0.635-0.28-1.065-0.756-1.288-1.427v0c-0.234-0.703-0.18-1.35 0.163-1.943 0.34-0.585 0.861-0.994 1.564-1.229v0c0.709-0.237 1.375-0.223 1.997 0.04 0.631 0.268 1.064 0.753 1.298 1.456v0c0.224 0.671 0.166 1.309-0.173 1.915-0.335 0.597-0.857 1.014-1.567 1.251z" fill="white"></path><path d="M219.289 255.391v0c-0.879 0.582-1.93 0.971-3.154 1.166-1.22 0.2-2.491 0.198-3.811-0.007v0l-0.117 0.077 1.016 2.113-2.553 1.692-18.237-27.515 3.17-2.101 4.966 7.491 2.172 3.46c0.357-1.309 0.871-2.551 1.543-3.724 0.675-1.168 1.541-2.102 2.597-2.803v0c1.207-0.8 2.424-1.283 3.652-1.448 1.227-0.165 2.434-0.036 3.619 0.388 1.187 0.414 2.331 1.101 3.431 2.06 1.1 0.96 2.128 2.16 3.083 3.601v0c1.058 1.596 1.786 3.171 2.183 4.725 0.397 1.554 0.515 3.017 0.352 4.39-0.167 1.367-0.591 2.605-1.273 3.713-0.68 1.099-1.56 2.007-2.639 2.722zM216.977 253.081v0c0.773-0.512 1.372-1.161 1.796-1.947 0.428-0.78 0.671-1.645 0.729-2.596 0.062-0.946-0.082-1.971-0.431-3.077-0.343-1.109-0.898-2.243-1.665-3.4v0c-0.682-1.029-1.394-1.91-2.136-2.643-0.748-0.729-1.523-1.264-2.324-1.605-0.802-0.341-1.628-0.47-2.478-0.387-0.85 0.083-1.714 0.416-2.593 0.998v0c-1.518 1.006-2.63 2.964-3.336 5.874v0l6.536 9.861c1.299 0.172 2.454 0.139 3.465-0.099 1.007-0.243 1.82-0.57 2.437-0.979z" fill="white"></path><path d="M248.497 227.594v0c-1.506 1.889-3.181 2.797-5.027 2.726-1.845-0.062-3.904-1-6.179-2.814v0l-11.162-8.896 2.402-3.014 10.762 8.579c1.67 1.331 3.08 2.029 4.232 2.093 1.153 0.074 2.193-0.471 3.121-1.634v0c0.732-0.918 1.139-1.916 1.222-2.994 0.088-1.074-0.051-2.447-0.416-4.12v0l-12.507-9.97 2.371-2.974 17.618 14.044-1.965 2.465-2.955-1.946-0.087 0.11c0.308 1.594 0.392 3.073 0.251 4.437-0.139 1.374-0.7 2.676-1.681 3.908z" fill="white"></path><path d="M275.848 198.499v0c-0.179 0.496-0.377 0.935-0.594 1.318-0.223 0.381-0.469 0.717-0.738 1.01v0l-2.581-1.721c0.14-0.212 0.301-0.448 0.48-0.71 0.176-0.27 0.31-0.534 0.403-0.79v0c0.443-1.224 0.377-2.376-0.197-3.457-0.581-1.083-1.448-2.078-2.603-2.985v0l-1.389-1.045-24.309 0.819 1.338-3.699 13.291-0.078c1.044 0.016 2.147 0.028 3.308 0.036 1.167 0.011 2.301 0.034 3.401 0.07v0l0.062-0.169c-0.838-0.665-1.728-1.334-2.669-2.009-0.944-0.668-1.827-1.314-2.652-1.938v0l-10.356-8.035 1.263-3.492 20.042 16.275c0.912 0.756 1.735 1.529 2.471 2.32 0.729 0.789 1.308 1.623 1.735 2.501 0.421 0.876 0.672 1.79 0.754 2.742 0.081 0.952-0.072 1.964-0.46 3.037z" fill="white"></path></g></svg></g></svg></g></svg></g></svg></g><defs><mask></mask></defs><mask><g id="SvgjsG1616"><svg viewBox="0 0 280 280" height="280" width="280"><g><svg viewBox="0 0 280 280" height="280" width="280"><g><svg viewBox="0 0 280 280" height="280" width="280"><g id="SvgjsG1615"><svg viewBox="0 0 280 280" height="280" width="280" id="SvgjsSvg1614"><g><svg viewBox="0 0 280 280" height="280" width="280"><g transform="matrix(1,0,0,1,74.00336708925556,74.00336708925556)"><svg viewBox="0 0 131.99326582148888 131.99326582148888" height="131.99326582148888" width="131.99326582148888"><g id="SvgjsG1613"><circle r="66" cx="65.99663291074444" cy="65.99663291074444" fill="black"></circle></g></svg></g><g id="SvgjsG1612"><path d="M31.143 104.258v0c-0.463 1.407-1.159 2.66-2.089 3.759-0.932 1.105-1.947 2.001-3.043 2.687v0l-1.688-2.398c0.987-0.631 1.848-1.328 2.584-2.09 0.729-0.765 1.289-1.743 1.681-2.935v0c0.427-1.3 0.449-2.371 0.066-3.213-0.381-0.849-1.003-1.415-1.865-1.698v0c-0.513-0.169-1.005-0.179-1.475-0.032-0.47 0.148-0.916 0.384-1.34 0.708-0.423 0.325-0.83 0.721-1.223 1.189-0.395 0.474-0.788 0.945-1.181 1.413v0c-0.472 0.624-0.982 1.236-1.53 1.836-0.542 0.602-1.126 1.108-1.754 1.521-0.625 0.406-1.294 0.688-2.006 0.847-0.71 0.153-1.487 0.091-2.33-0.187v0c-0.78-0.256-1.464-0.653-2.053-1.191-0.589-0.538-1.038-1.18-1.347-1.928-0.309-0.748-0.469-1.587-0.479-2.517-0.01-0.931 0.159-1.925 0.506-2.984v0c0.408-1.242 1.002-2.312 1.781-3.208 0.775-0.904 1.597-1.631 2.467-2.181v0l1.592 2.272c-0.736 0.51-1.386 1.076-1.949 1.698-0.563 0.623-0.987 1.368-1.273 2.237v0c-0.408 1.242-0.426 2.248-0.054 3.017 0.379 0.771 0.945 1.28 1.7 1.528v0c0.463 0.152 0.903 0.16 1.32 0.023 0.421-0.128 0.826-0.354 1.213-0.676 0.393-0.32 0.778-0.71 1.153-1.17 0.376-0.459 0.765-0.939 1.169-1.439v0c0.504-0.614 1.022-1.23 1.555-1.848 0.527-0.62 1.109-1.142 1.747-1.565 0.631-0.425 1.333-0.71 2.105-0.857 0.767-0.155 1.611-0.082 2.53 0.22v0c0.811 0.267 1.518 0.671 2.119 1.213 0.602 0.542 1.075 1.207 1.42 1.995 0.339 0.786 0.515 1.683 0.527 2.691 0.013 1.009-0.173 2.096-0.556 3.263z" fill="black"></path><path d="M46.654 74.162v0c-0.765 1.134-1.683 2.065-2.752 2.792-1.072 0.718-2.235 1.177-3.489 1.377-1.248 0.204-2.574 0.135-3.977-0.208-1.403-0.343-2.812-0.992-4.228-1.947v0c-1.438-0.97-2.568-2.058-3.389-3.263-0.817-1.211-1.362-2.456-1.634-3.735-0.263-1.28-0.259-2.557 0.013-3.831 0.275-1.279 0.786-2.472 1.532-3.578v0c0.765-1.134 1.62-1.966 2.565-2.496 0.945-0.53 1.896-0.919 2.852-1.167v0l0.907 2.773c-0.784 0.196-1.504 0.475-2.159 0.838-0.655 0.363-1.214 0.887-1.677 1.573v0c-0.526 0.78-0.854 1.605-0.983 2.476-0.127 0.88-0.053 1.755 0.222 2.625 0.265 0.871 0.716 1.719 1.352 2.542 0.63 0.82 1.441 1.563 2.431 2.231v0c0.99 0.668 1.974 1.143 2.951 1.424 0.983 0.285 1.917 0.392 2.802 0.321 0.894-0.073 1.721-0.332 2.481-0.778 0.769-0.447 1.414-1.058 1.936-1.833v0c0.545-0.808 0.872-1.662 0.98-2.562 0.112-0.906 0.116-1.789 0.012-2.648v0l2.812 0.037c0.154 1.239 0.109 2.464-0.137 3.675-0.251 1.207-0.725 2.328-1.423 3.362z" fill="black"></path><path d="M65.44 52.742l-2.59 2.359-13.981-15.345 2.59-2.359zM47.315 35.39v0c-0.503 0.458-1.074 0.689-1.711 0.693-0.633-0.001-1.17-0.243-1.61-0.727v0c-0.463-0.508-0.661-1.072-0.595-1.693 0.072-0.625 0.359-1.167 0.862-1.624v0c0.508-0.463 1.074-0.699 1.698-0.708 0.629-0.013 1.175 0.234 1.638 0.742v0c0.44 0.483 0.629 1.042 0.566 1.677-0.058 0.63-0.341 1.177-0.848 1.64z" fill="black"></path><path d="M90.179 37.746v0c-1.24 0.638-2.513 1.016-3.819 1.133-1.303 0.108-2.567-0.044-3.792-0.456-1.22-0.415-2.363-1.098-3.431-2.05-1.071-0.957-1.997-2.195-2.78-3.714v0c-0.782-1.519-1.249-3.001-1.4-4.446-0.151-1.446-0.056-2.782 0.288-4.01 0.346-1.237 0.897-2.331 1.653-3.283 0.762-0.955 1.673-1.706 2.735-2.253v0c1.163-0.599 2.312-0.932 3.449-0.999 1.133-0.073 2.204 0.111 3.211 0.553 1.014 0.439 1.957 1.105 2.831 1.998 0.882 0.897 1.662 2.004 2.341 3.321v0c0.168 0.326 0.327 0.65 0.477 0.97 0.153 0.326 0.261 0.616 0.323 0.869v0l-12.458 6.416c1.142 1.911 2.561 3.158 4.257 3.74 1.699 0.589 3.436 0.426 5.21-0.487v0c0.884-0.455 1.631-1.009 2.241-1.66 0.61-0.652 1.145-1.37 1.603-2.155v0l2.162 1.488c-0.553 0.923-1.224 1.828-2.013 2.714-0.795 0.89-1.825 1.66-3.088 2.311zM78.617 29.57v0l9.877-5.086c-0.965-1.875-2.099-3.092-3.4-3.653-1.296-0.564-2.668-0.473-4.116 0.273v0c-0.658 0.339-1.219 0.789-1.68 1.35-0.465 0.555-0.811 1.202-1.038 1.941-0.224 0.746-0.314 1.554-0.271 2.425 0.052 0.874 0.262 1.79 0.628 2.75z" fill="black"></path><path d="M117.871 28.021l-3.445 0.633-3.747-20.419 2.855-0.523 0.834 2.879 0.128-0.023c0.798-1.157 1.679-2.164 2.641-3.019 0.955-0.86 2.147-1.422 3.579-1.684v0c2.153-0.395 3.851-0.011 5.096 1.151 1.238 1.164 2.098 3.061 2.581 5.693v0l2.375 12.946-3.446 0.632-2.29-12.483c-0.354-1.93-0.918-3.264-1.691-4.004-0.768-0.748-1.825-0.998-3.171-0.752v0c-1.07 0.196-1.959 0.638-2.667 1.324-0.716 0.681-1.498 1.635-2.345 2.862v0z" fill="black"></path><path d="M157.196 27.525v0c-1.1-0.131-2.007-0.41-2.723-0.838-0.709-0.427-1.259-0.966-1.652-1.618-0.394-0.645-0.639-1.407-0.736-2.285-0.098-0.872-0.086-1.815 0.034-2.828v0l1.358-11.41-3.061-0.364 0.313-2.634 3.255 0.176 1.115-5.724 2.922 0.348-0.687 5.774 5.556 0.662-0.339 2.842-5.556-0.661-1.362 11.45c-0.151 1.272-0.037 2.284 0.344 3.034 0.388 0.745 1.176 1.188 2.362 1.33v0c0.371 0.044 0.775 0.035 1.213-0.027 0.437-0.062 0.833-0.143 1.188-0.242v0l0.363 2.704c-0.587 0.132-1.221 0.238-1.902 0.318-0.687 0.073-1.356 0.07-2.005-0.007z" fill="black"></path><path d="M181.939 33.41l-3.313-1.139 6.75-19.631 3.313 1.139zM188.46 9.181v0c-0.644-0.221-1.12-0.611-1.429-1.169-0.303-0.556-0.348-1.143-0.135-1.761v0c0.223-0.65 0.623-1.095 1.199-1.334 0.583-0.237 1.196-0.245 1.84-0.024v0c0.65 0.223 1.129 0.607 1.435 1.15 0.314 0.545 0.359 1.143 0.135 1.793v0c-0.213 0.618-0.612 1.052-1.199 1.302-0.581 0.252-1.196 0.266-1.846 0.043z" fill="black"></path><path d="M207.574 48.354v0c-0.8-0.544-1.5-1.301-2.098-2.272-0.595-0.977-1.04-2.062-1.335-3.254v0l-0.1-0.068-1.446 1.595-2.335-1.586 17.092-25.162 2.898 1.969-4.657 6.855-2.189 3.063c1.243-0.156 2.481-0.15 3.714 0.018 1.231 0.159 2.33 0.566 3.296 1.223v0c1.109 0.754 1.949 1.626 2.518 2.617 0.563 0.988 0.876 2.059 0.938 3.215 0.053 1.157-0.135 2.372-0.565 3.646-0.439 1.275-1.106 2.572-2.002 3.891v0c-0.99 1.457-2.078 2.626-3.265 3.506-1.185 0.889-2.391 1.501-3.619 1.837-1.228 0.335-2.43 0.406-3.605 0.213-1.172-0.199-2.252-0.634-3.24-1.306zM208.731 45.583v0c0.707 0.48 1.469 0.764 2.288 0.852 0.819 0.089 1.642-0.006 2.468-0.284 0.83-0.283 1.653-0.765 2.469-1.444 0.826-0.681 1.599-1.552 2.319-2.612v0c0.641-0.944 1.143-1.861 1.506-2.751 0.363-0.891 0.55-1.736 0.561-2.536 0.011-0.799-0.166-1.549-0.53-2.247-0.373-0.697-0.96-1.318-1.761-1.862v0c-1.391-0.945-3.451-1.207-6.181-0.787v0l-6.119 9.009c0.306 1.176 0.737 2.151 1.293 2.923 0.556 0.773 1.118 1.352 1.687 1.739z" fill="black"></path><path d="M231.382 71.601v0c-1.368-1.751-1.823-3.445-1.365-5.081 0.454-1.641 1.735-3.286 3.843-4.933v0l10.364-8.097 2.182 2.793-9.994 7.807c-1.551 1.212-2.48 2.327-2.785 3.344-0.306 1.018-0.037 2.066 0.805 3.144v0c0.665 0.852 1.471 1.433 2.417 1.744 0.946 0.311 2.209 0.48 3.788 0.508v0l11.61-9.07 2.157 2.761-16.359 12.779-1.787-2.287 2.371-2.233-0.08-0.103c-1.49-0.064-2.834-0.305-4.033-0.723-1.194-0.422-2.238-1.207-3.134-2.353z" fill="black"></path><path d="M238.495 100.583v0c-0.16-0.453-0.272-0.88-0.336-1.282-0.071-0.4-0.093-0.784-0.069-1.154v0l2.841-0.283c0.025 0.232 0.051 0.495 0.078 0.79 0.026 0.295 0.082 0.562 0.166 0.801v0c0.398 1.126 1.119 1.904 2.164 2.335 1.046 0.437 2.245 0.643 3.594 0.618v0l1.61-0.07 16.829-14.795 1.212 3.425-9.422 7.823c-0.751 0.598-1.546 1.233-2.384 1.905-0.832 0.669-1.655 1.314-2.468 1.934v0l0.056 0.161c0.992-0.018 2.02-0.063 3.084-0.135 1.064-0.072 2.071-0.127 3.021-0.166v0l12.074-0.321 1.138 3.218-23.791 0.122c-1.087-0.012-2.125-0.084-3.113-0.215-0.982-0.134-1.879-0.39-2.692-0.768-0.813-0.378-1.528-0.879-2.145-1.503-0.613-0.633-1.095-1.446-1.447-2.44z" fill="black"></path><path d="M2.263 142.132c0-6.417 5.202-11.62 11.619-11.62 6.417 0 11.62 5.202 11.62 11.62 0 6.417-5.202 11.62-11.62 11.62-6.417 0-11.62-5.202-11.619-11.62z" fill="black"></path><path d="M254.498 142.132c0-6.417 5.202-11.62 11.62-11.62 6.417 0 11.62 5.202 11.619 11.62 0 6.417-5.202 11.62-11.619 11.62-6.417 0-11.62-5.202-11.62-11.62z" fill="black"></path></g><g id="SvgjsG1611"><path d="M9.864 187.866v0c-0.51-1.525-0.716-3.067-0.619-4.627 0.095-1.566 0.399-3.004 0.911-4.315v0l3.023 0.994c-0.452 1.193-0.749 2.358-0.889 3.495-0.14 1.137 0.006 2.352 0.438 3.643v0c0.47 1.405 1.146 2.354 2.028 2.847 0.88 0.487 1.789 0.573 2.726 0.26v0c0.557-0.186 0.992-0.494 1.306-0.923 0.312-0.435 0.543-0.931 0.695-1.488 0.16-0.553 0.258-1.163 0.295-1.83 0.037-0.667 0.076-1.331 0.116-1.991v0c0.01-0.855 0.055-1.718 0.136-2.589 0.079-0.878 0.262-1.699 0.548-2.463 0.28-0.762 0.679-1.441 1.198-2.037 0.518-0.596 1.233-1.046 2.145-1.35v0c0.848-0.284 1.701-0.383 2.56-0.297 0.859 0.086 1.666 0.354 2.422 0.805 0.756 0.451 1.437 1.078 2.044 1.881 0.615 0.808 1.114 1.784 1.496 2.929v0c0.451 1.348 0.63 2.663 0.539 3.947-0.092 1.283-0.338 2.449-0.74 3.498v0l-2.862-0.953c0.313-0.914 0.515-1.826 0.605-2.735 0.088-0.916-0.025-1.842-0.339-2.779v0c-0.451-1.348-1.092-2.235-1.923-2.66-0.823-0.421-1.646-0.494-2.47-0.219v0c-0.494 0.165-0.879 0.442-1.157 0.83-0.28 0.382-0.486 0.841-0.616 1.378-0.132 0.53-0.213 1.12-0.242 1.769-0.031 0.644-0.061 1.312-0.09 2.004v0c-0.035 0.863-0.085 1.735-0.149 2.615-0.062 0.886-0.235 1.718-0.517 2.494-0.274 0.781-0.696 1.485-1.267 2.113-0.569 0.634-1.354 1.118-2.353 1.452v0c-0.88 0.294-1.755 0.401-2.627 0.319-0.88-0.086-1.721-0.36-2.523-0.824-0.809-0.461-1.545-1.126-2.208-1.995-0.672-0.873-1.218-1.939-1.64-3.198z" fill="black"></path><path d="M28.329 223.45v0c-0.833-1.225-1.398-2.523-1.694-3.896-0.292-1.367-0.289-2.721 0.01-4.061 0.3-1.35 0.905-2.661 1.815-3.934 0.91-1.273 2.132-2.43 3.665-3.474v0c1.561-1.062 3.114-1.763 4.659-2.103 1.544-0.34 3.016-0.389 4.415-0.147 1.403 0.248 2.69 0.769 3.86 1.563 1.171 0.785 2.166 1.779 2.984 2.982v0c0.837 1.23 1.332 2.427 1.485 3.59 0.163 1.164 0.174 2.279 0.034 3.342v0l-3.167-0.207c0.122-0.865 0.129-1.702 0.024-2.51-0.1-0.812-0.402-1.587-0.904-2.326v0c-0.574-0.844-1.279-1.507-2.115-1.987-0.826-0.479-1.734-0.758-2.723-0.836-0.989-0.078-2.024 0.037-3.106 0.346-1.076 0.304-2.152 0.822-3.228 1.554v0c-1.07 0.728-1.946 1.529-2.626 2.403-0.675 0.871-1.158 1.768-1.449 2.693-0.286 0.921-0.358 1.858-0.218 2.811 0.14 0.954 0.497 1.853 1.071 2.697v0c0.589 0.866 1.319 1.536 2.19 2.009 0.865 0.477 1.752 0.838 2.661 1.083v0l-1.162 2.812c-1.319-0.338-2.537-0.877-3.654-1.618-1.119-0.732-2.061-1.66-2.827-2.786z" fill="black"></path><path d="M51.073 247.719l-2.81-2.563 15.187-16.644 2.81 2.564zM68.015 226.391v0c-0.547-0.499-0.853-1.09-0.917-1.772-0.065-0.691 0.141-1.298 0.618-1.821v0c0.499-0.547 1.092-0.815 1.777-0.804 0.676 0.012 1.288 0.267 1.834 0.766v0c0.552 0.504 0.865 1.092 0.938 1.764 0.074 0.681-0.139 1.296-0.638 1.843v0c-0.477 0.522-1.062 0.783-1.757 0.782-0.685-0.002-1.303-0.254-1.855-0.758z" fill="black"></path><path d="M79.649 266.601v0c-1.344-0.698-2.476-1.589-3.394-2.674-0.915-1.091-1.574-2.305-1.977-3.643-0.401-1.343-0.516-2.786-0.347-4.329 0.179-1.546 0.695-3.143 1.55-4.79v0c0.855-1.646 1.875-2.989 3.06-4.027 1.186-1.039 2.431-1.794 3.737-2.267 1.305-0.473 2.619-0.671 3.939-0.594 1.315 0.074 2.55 0.41 3.705 1.009v0c1.262 0.655 2.279 1.461 3.052 2.419 0.773 0.958 1.284 2.023 1.532 3.197 0.242 1.171 0.244 2.427 0.006 3.769-0.241 1.333-0.732 2.714-1.472 4.142v0c-0.184 0.355-0.375 0.7-0.571 1.034-0.19 0.337-0.376 0.617-0.559 0.838v0l-13.503-7.009c-0.968 2.212-1.18 4.252-0.639 6.119 0.548 1.871 1.781 3.304 3.7 4.3v0c0.959 0.498 1.92 0.812 2.882 0.943 0.953 0.134 1.921 0.159 2.905 0.076v0l0.046 2.843c-1.168 0.093-2.392 0.067-3.67-0.078-1.287-0.142-2.615-0.568-3.982-1.278zM79.63 251.233v0l10.696 5.551c1.054-2.031 1.424-3.802 1.11-5.311-0.318-1.503-1.258-2.66-2.822-3.471v0c-0.711-0.369-1.46-0.585-2.246-0.648-0.79-0.057-1.584 0.046-2.382 0.309-0.798 0.263-1.568 0.69-2.312 1.281-0.743 0.592-1.425 1.354-2.044 2.289z" fill="black"></path><path d="M113.46 277.389l-3.739-0.698 4.133-22.148 3.099 0.579-0.28 3.246 0.138 0.026c1.261-0.864 2.545-1.544 3.853-2.04 1.301-0.497 2.726-0.601 4.273-0.313v0c2.342 0.437 3.918 1.485 4.729 3.143 0.803 1.664 0.938 3.922 0.405 6.775v0l-2.62 14.041-3.739-0.698 2.527-13.539c0.392-2.099 0.339-3.673-0.157-4.723-0.496-1.05-1.473-1.71-2.929-1.982v0c-1.154-0.215-2.225-0.117-3.212 0.297-0.993 0.412-2.155 1.074-3.487 1.986v0z" fill="black"></path><path d="M159.868 279.28v0c-1.2 0.14-2.229 0.072-3.087-0.204-0.859-0.276-1.577-0.706-2.156-1.29-0.579-0.584-1.031-1.324-1.357-2.22-0.32-0.897-0.544-1.898-0.673-3.005v0l-1.445-12.388-3.321 0.388-0.332-2.853 3.472-0.637-0.263-6.318 3.171-0.37 0.731 6.263 6.035-0.704 0.359 3.082-6.034 0.704 1.45 12.437c0.161 1.379 0.54 2.416 1.139 3.112 0.591 0.69 1.533 0.96 2.826 0.809v0c0.398-0.046 0.818-0.156 1.261-0.328 0.449-0.18 0.847-0.368 1.194-0.563v0l1.079 2.767c-0.591 0.291-1.238 0.561-1.941 0.81-0.702 0.257-1.405 0.426-2.108 0.508z" fill="black"></path><path d="M188.176 271.64l-3.608 1.204-7.132-21.372 3.608-1.204zM177.808 246.452v0c-0.703 0.234-1.367 0.214-1.994-0.063-0.635-0.28-1.065-0.756-1.288-1.427v0c-0.234-0.703-0.18-1.35 0.163-1.943 0.34-0.585 0.861-0.994 1.564-1.229v0c0.709-0.237 1.375-0.223 1.997 0.04 0.631 0.268 1.064 0.753 1.298 1.456v0c0.224 0.671 0.166 1.309-0.173 1.915-0.335 0.597-0.857 1.014-1.567 1.251z" fill="black"></path><path d="M219.289 255.391v0c-0.879 0.582-1.93 0.971-3.154 1.166-1.22 0.2-2.491 0.198-3.811-0.007v0l-0.117 0.077 1.016 2.113-2.553 1.692-18.237-27.515 3.17-2.101 4.966 7.491 2.172 3.46c0.357-1.309 0.871-2.551 1.543-3.724 0.675-1.168 1.541-2.102 2.597-2.803v0c1.207-0.8 2.424-1.283 3.652-1.448 1.227-0.165 2.434-0.036 3.619 0.388 1.187 0.414 2.331 1.101 3.431 2.06 1.1 0.96 2.128 2.16 3.083 3.601v0c1.058 1.596 1.786 3.171 2.183 4.725 0.397 1.554 0.515 3.017 0.352 4.39-0.167 1.367-0.591 2.605-1.273 3.713-0.68 1.099-1.56 2.007-2.639 2.722zM216.977 253.081v0c0.773-0.512 1.372-1.161 1.796-1.947 0.428-0.78 0.671-1.645 0.729-2.596 0.062-0.946-0.082-1.971-0.431-3.077-0.343-1.109-0.898-2.243-1.665-3.4v0c-0.682-1.029-1.394-1.91-2.136-2.643-0.748-0.729-1.523-1.264-2.324-1.605-0.802-0.341-1.628-0.47-2.478-0.387-0.85 0.083-1.714 0.416-2.593 0.998v0c-1.518 1.006-2.63 2.964-3.336 5.874v0l6.536 9.861c1.299 0.172 2.454 0.139 3.465-0.099 1.007-0.243 1.82-0.57 2.437-0.979z" fill="black"></path><path d="M248.497 227.594v0c-1.506 1.889-3.181 2.797-5.027 2.726-1.845-0.062-3.904-1-6.179-2.814v0l-11.162-8.896 2.402-3.014 10.762 8.579c1.67 1.331 3.08 2.029 4.232 2.093 1.153 0.074 2.193-0.471 3.121-1.634v0c0.732-0.918 1.139-1.916 1.222-2.994 0.088-1.074-0.051-2.447-0.416-4.12v0l-12.507-9.97 2.371-2.974 17.618 14.044-1.965 2.465-2.955-1.946-0.087 0.11c0.308 1.594 0.392 3.073 0.251 4.437-0.139 1.374-0.7 2.676-1.681 3.908z" fill="black"></path><path d="M275.848 198.499v0c-0.179 0.496-0.377 0.935-0.594 1.318-0.223 0.381-0.469 0.717-0.738 1.01v0l-2.581-1.721c0.14-0.212 0.301-0.448 0.48-0.71 0.176-0.27 0.31-0.534 0.403-0.79v0c0.443-1.224 0.377-2.376-0.197-3.457-0.581-1.083-1.448-2.078-2.603-2.985v0l-1.389-1.045-24.309 0.819 1.338-3.699 13.291-0.078c1.044 0.016 2.147 0.028 3.308 0.036 1.167 0.011 2.301 0.034 3.401 0.07v0l0.062-0.169c-0.838-0.665-1.728-1.334-2.669-2.009-0.944-0.668-1.827-1.314-2.652-1.938v0l-10.356-8.035 1.263-3.492 20.042 16.275c0.912 0.756 1.735 1.529 2.471 2.32 0.729 0.789 1.308 1.623 1.735 2.501 0.421 0.876 0.672 1.79 0.754 2.742 0.081 0.952-0.072 1.964-0.46 3.037z" fill="black"></path></g></svg></g></svg></g></svg></g></svg></g><defs><mask></mask></defs></svg><rect width="280" height="280" fill="black" stroke="none" visibility="hidden"></rect></g></mask></svg><rect width="280" height="280" fill="black" stroke="none" visibility="hidden"></rect></g></mask><linearGradient x1="0" x2="1" y1="0.578" y2="0.595" id="3e6571de-6b1c-4bdc-8ff2-26f6d3cae45e"><stop stop-color="#6ee2f5" offset="0"></stop><stop stop-color="#6454f0" offset="1"></stop></linearGradient><rect width="280" height="280" fill="url(#3e6571de-6b1c-4bdc-8ff2-26f6d3cae45e)" mask="url(#03e111b2-77c3-435a-b8f2-6b29c92f3816)" data-fill-palette-color="secondary"></rect><mask id="774c9a9f-80e9-45a6-b1f7-d0b5c2290751"><g id="SvgjsG1646"><svg viewBox="0 0 280 280" height="280" width="280"><g><svg viewBox="0 0 280 280" height="280" width="280"><g><svg viewBox="0 0 280 280" height="280" width="280"><g id="SvgjsG1645"><svg viewBox="0 0 280 280" height="280" width="280" id="SvgjsSvg1644"><g><svg viewBox="0 0 280 280" height="280" width="280"><g transform="matrix(1,0,0,1,74.00336708925556,74.00336708925556)"><svg viewBox="0 0 131.99326582148888 131.99326582148888" height="131.99326582148888" width="131.99326582148888"><g id="SvgjsG1643"><circle r="66" cx="65.99663291074444" cy="65.99663291074444" fill="white"></circle></g></svg></g><g id="SvgjsG1642"></g><g id="SvgjsG1641"></g></svg></g></svg></g></svg></g></svg></g><defs><mask></mask></defs><mask><g id="SvgjsG1640"><svg viewBox="0 0 280 280" height="280" width="280"><g><svg viewBox="0 0 280 280" height="280" width="280"><g><svg viewBox="0 0 280 280" height="280" width="280"><g id="SvgjsG1639"><svg viewBox="0 0 280 280" height="280" width="280" id="SvgjsSvg1638"><g><svg viewBox="0 0 280 280" height="280" width="280"><g transform="matrix(1,0,0,1,74.00336708925556,74.00336708925556)"><svg viewBox="0 0 131.99326582148888 131.99326582148888" height="131.99326582148888" width="131.99326582148888"><g id="SvgjsG1637"><circle r="66" cx="65.99663291074444" cy="65.99663291074444" fill="black"></circle></g></svg></g><g id="SvgjsG1636"><path d="M31.143 104.258v0c-0.463 1.407-1.159 2.66-2.089 3.759-0.932 1.105-1.947 2.001-3.043 2.687v0l-1.688-2.398c0.987-0.631 1.848-1.328 2.584-2.09 0.729-0.765 1.289-1.743 1.681-2.935v0c0.427-1.3 0.449-2.371 0.066-3.213-0.381-0.849-1.003-1.415-1.865-1.698v0c-0.513-0.169-1.005-0.179-1.475-0.032-0.47 0.148-0.916 0.384-1.34 0.708-0.423 0.325-0.83 0.721-1.223 1.189-0.395 0.474-0.788 0.945-1.181 1.413v0c-0.472 0.624-0.982 1.236-1.53 1.836-0.542 0.602-1.126 1.108-1.754 1.521-0.625 0.406-1.294 0.688-2.006 0.847-0.71 0.153-1.487 0.091-2.33-0.187v0c-0.78-0.256-1.464-0.653-2.053-1.191-0.589-0.538-1.038-1.18-1.347-1.928-0.309-0.748-0.469-1.587-0.479-2.517-0.01-0.931 0.159-1.925 0.506-2.984v0c0.408-1.242 1.002-2.312 1.781-3.208 0.775-0.904 1.597-1.631 2.467-2.181v0l1.592 2.272c-0.736 0.51-1.386 1.076-1.949 1.698-0.563 0.623-0.987 1.368-1.273 2.237v0c-0.408 1.242-0.426 2.248-0.054 3.017 0.379 0.771 0.945 1.28 1.7 1.528v0c0.463 0.152 0.903 0.16 1.32 0.023 0.421-0.128 0.826-0.354 1.213-0.676 0.393-0.32 0.778-0.71 1.153-1.17 0.376-0.459 0.765-0.939 1.169-1.439v0c0.504-0.614 1.022-1.23 1.555-1.848 0.527-0.62 1.109-1.142 1.747-1.565 0.631-0.425 1.333-0.71 2.105-0.857 0.767-0.155 1.611-0.082 2.53 0.22v0c0.811 0.267 1.518 0.671 2.119 1.213 0.602 0.542 1.075 1.207 1.42 1.995 0.339 0.786 0.515 1.683 0.527 2.691 0.013 1.009-0.173 2.096-0.556 3.263z" fill="black"></path><path d="M46.654 74.162v0c-0.765 1.134-1.683 2.065-2.752 2.792-1.072 0.718-2.235 1.177-3.489 1.377-1.248 0.204-2.574 0.135-3.977-0.208-1.403-0.343-2.812-0.992-4.228-1.947v0c-1.438-0.97-2.568-2.058-3.389-3.263-0.817-1.211-1.362-2.456-1.634-3.735-0.263-1.28-0.259-2.557 0.013-3.831 0.275-1.279 0.786-2.472 1.532-3.578v0c0.765-1.134 1.62-1.966 2.565-2.496 0.945-0.53 1.896-0.919 2.852-1.167v0l0.907 2.773c-0.784 0.196-1.504 0.475-2.159 0.838-0.655 0.363-1.214 0.887-1.677 1.573v0c-0.526 0.78-0.854 1.605-0.983 2.476-0.127 0.88-0.053 1.755 0.222 2.625 0.265 0.871 0.716 1.719 1.352 2.542 0.63 0.82 1.441 1.563 2.431 2.231v0c0.99 0.668 1.974 1.143 2.951 1.424 0.983 0.285 1.917 0.392 2.802 0.321 0.894-0.073 1.721-0.332 2.481-0.778 0.769-0.447 1.414-1.058 1.936-1.833v0c0.545-0.808 0.872-1.662 0.98-2.562 0.112-0.906 0.116-1.789 0.012-2.648v0l2.812 0.037c0.154 1.239 0.109 2.464-0.137 3.675-0.251 1.207-0.725 2.328-1.423 3.362z" fill="black"></path><path d="M65.44 52.742l-2.59 2.359-13.981-15.345 2.59-2.359zM47.315 35.39v0c-0.503 0.458-1.074 0.689-1.711 0.693-0.633-0.001-1.17-0.243-1.61-0.727v0c-0.463-0.508-0.661-1.072-0.595-1.693 0.072-0.625 0.359-1.167 0.862-1.624v0c0.508-0.463 1.074-0.699 1.698-0.708 0.629-0.013 1.175 0.234 1.638 0.742v0c0.44 0.483 0.629 1.042 0.566 1.677-0.058 0.63-0.341 1.177-0.848 1.64z" fill="black"></path><path d="M90.179 37.746v0c-1.24 0.638-2.513 1.016-3.819 1.133-1.303 0.108-2.567-0.044-3.792-0.456-1.22-0.415-2.363-1.098-3.431-2.05-1.071-0.957-1.997-2.195-2.78-3.714v0c-0.782-1.519-1.249-3.001-1.4-4.446-0.151-1.446-0.056-2.782 0.288-4.01 0.346-1.237 0.897-2.331 1.653-3.283 0.762-0.955 1.673-1.706 2.735-2.253v0c1.163-0.599 2.312-0.932 3.449-0.999 1.133-0.073 2.204 0.111 3.211 0.553 1.014 0.439 1.957 1.105 2.831 1.998 0.882 0.897 1.662 2.004 2.341 3.321v0c0.168 0.326 0.327 0.65 0.477 0.97 0.153 0.326 0.261 0.616 0.323 0.869v0l-12.458 6.416c1.142 1.911 2.561 3.158 4.257 3.74 1.699 0.589 3.436 0.426 5.21-0.487v0c0.884-0.455 1.631-1.009 2.241-1.66 0.61-0.652 1.145-1.37 1.603-2.155v0l2.162 1.488c-0.553 0.923-1.224 1.828-2.013 2.714-0.795 0.89-1.825 1.66-3.088 2.311zM78.617 29.57v0l9.877-5.086c-0.965-1.875-2.099-3.092-3.4-3.653-1.296-0.564-2.668-0.473-4.116 0.273v0c-0.658 0.339-1.219 0.789-1.68 1.35-0.465 0.555-0.811 1.202-1.038 1.941-0.224 0.746-0.314 1.554-0.271 2.425 0.052 0.874 0.262 1.79 0.628 2.75z" fill="black"></path><path d="M117.871 28.021l-3.445 0.633-3.747-20.419 2.855-0.523 0.834 2.879 0.128-0.023c0.798-1.157 1.679-2.164 2.641-3.019 0.955-0.86 2.147-1.422 3.579-1.684v0c2.153-0.395 3.851-0.011 5.096 1.151 1.238 1.164 2.098 3.061 2.581 5.693v0l2.375 12.946-3.446 0.632-2.29-12.483c-0.354-1.93-0.918-3.264-1.691-4.004-0.768-0.748-1.825-0.998-3.171-0.752v0c-1.07 0.196-1.959 0.638-2.667 1.324-0.716 0.681-1.498 1.635-2.345 2.862v0z" fill="black"></path><path d="M157.196 27.525v0c-1.1-0.131-2.007-0.41-2.723-0.838-0.709-0.427-1.259-0.966-1.652-1.618-0.394-0.645-0.639-1.407-0.736-2.285-0.098-0.872-0.086-1.815 0.034-2.828v0l1.358-11.41-3.061-0.364 0.313-2.634 3.255 0.176 1.115-5.724 2.922 0.348-0.687 5.774 5.556 0.662-0.339 2.842-5.556-0.661-1.362 11.45c-0.151 1.272-0.037 2.284 0.344 3.034 0.388 0.745 1.176 1.188 2.362 1.33v0c0.371 0.044 0.775 0.035 1.213-0.027 0.437-0.062 0.833-0.143 1.188-0.242v0l0.363 2.704c-0.587 0.132-1.221 0.238-1.902 0.318-0.687 0.073-1.356 0.07-2.005-0.007z" fill="black"></path><path d="M181.939 33.41l-3.313-1.139 6.75-19.631 3.313 1.139zM188.46 9.181v0c-0.644-0.221-1.12-0.611-1.429-1.169-0.303-0.556-0.348-1.143-0.135-1.761v0c0.223-0.65 0.623-1.095 1.199-1.334 0.583-0.237 1.196-0.245 1.84-0.024v0c0.65 0.223 1.129 0.607 1.435 1.15 0.314 0.545 0.359 1.143 0.135 1.793v0c-0.213 0.618-0.612 1.052-1.199 1.302-0.581 0.252-1.196 0.266-1.846 0.043z" fill="black"></path><path d="M207.574 48.354v0c-0.8-0.544-1.5-1.301-2.098-2.272-0.595-0.977-1.04-2.062-1.335-3.254v0l-0.1-0.068-1.446 1.595-2.335-1.586 17.092-25.162 2.898 1.969-4.657 6.855-2.189 3.063c1.243-0.156 2.481-0.15 3.714 0.018 1.231 0.159 2.33 0.566 3.296 1.223v0c1.109 0.754 1.949 1.626 2.518 2.617 0.563 0.988 0.876 2.059 0.938 3.215 0.053 1.157-0.135 2.372-0.565 3.646-0.439 1.275-1.106 2.572-2.002 3.891v0c-0.99 1.457-2.078 2.626-3.265 3.506-1.185 0.889-2.391 1.501-3.619 1.837-1.228 0.335-2.43 0.406-3.605 0.213-1.172-0.199-2.252-0.634-3.24-1.306zM208.731 45.583v0c0.707 0.48 1.469 0.764 2.288 0.852 0.819 0.089 1.642-0.006 2.468-0.284 0.83-0.283 1.653-0.765 2.469-1.444 0.826-0.681 1.599-1.552 2.319-2.612v0c0.641-0.944 1.143-1.861 1.506-2.751 0.363-0.891 0.55-1.736 0.561-2.536 0.011-0.799-0.166-1.549-0.53-2.247-0.373-0.697-0.96-1.318-1.761-1.862v0c-1.391-0.945-3.451-1.207-6.181-0.787v0l-6.119 9.009c0.306 1.176 0.737 2.151 1.293 2.923 0.556 0.773 1.118 1.352 1.687 1.739z" fill="black"></path><path d="M231.382 71.601v0c-1.368-1.751-1.823-3.445-1.365-5.081 0.454-1.641 1.735-3.286 3.843-4.933v0l10.364-8.097 2.182 2.793-9.994 7.807c-1.551 1.212-2.48 2.327-2.785 3.344-0.306 1.018-0.037 2.066 0.805 3.144v0c0.665 0.852 1.471 1.433 2.417 1.744 0.946 0.311 2.209 0.48 3.788 0.508v0l11.61-9.07 2.157 2.761-16.359 12.779-1.787-2.287 2.371-2.233-0.08-0.103c-1.49-0.064-2.834-0.305-4.033-0.723-1.194-0.422-2.238-1.207-3.134-2.353z" fill="black"></path><path d="M238.495 100.583v0c-0.16-0.453-0.272-0.88-0.336-1.282-0.071-0.4-0.093-0.784-0.069-1.154v0l2.841-0.283c0.025 0.232 0.051 0.495 0.078 0.79 0.026 0.295 0.082 0.562 0.166 0.801v0c0.398 1.126 1.119 1.904 2.164 2.335 1.046 0.437 2.245 0.643 3.594 0.618v0l1.61-0.07 16.829-14.795 1.212 3.425-9.422 7.823c-0.751 0.598-1.546 1.233-2.384 1.905-0.832 0.669-1.655 1.314-2.468 1.934v0l0.056 0.161c0.992-0.018 2.02-0.063 3.084-0.135 1.064-0.072 2.071-0.127 3.021-0.166v0l12.074-0.321 1.138 3.218-23.791 0.122c-1.087-0.012-2.125-0.084-3.113-0.215-0.982-0.134-1.879-0.39-2.692-0.768-0.813-0.378-1.528-0.879-2.145-1.503-0.613-0.633-1.095-1.446-1.447-2.44z" fill="black"></path><path d="M2.263 142.132c0-6.417 5.202-11.62 11.619-11.62 6.417 0 11.62 5.202 11.62 11.62 0 6.417-5.202 11.62-11.62 11.62-6.417 0-11.62-5.202-11.619-11.62z" fill="black"></path><path d="M254.498 142.132c0-6.417 5.202-11.62 11.62-11.62 6.417 0 11.62 5.202 11.619 11.62 0 6.417-5.202 11.62-11.619 11.62-6.417 0-11.62-5.202-11.62-11.62z" fill="black"></path></g><g id="SvgjsG1635"><path d="M9.864 187.866v0c-0.51-1.525-0.716-3.067-0.619-4.627 0.095-1.566 0.399-3.004 0.911-4.315v0l3.023 0.994c-0.452 1.193-0.749 2.358-0.889 3.495-0.14 1.137 0.006 2.352 0.438 3.643v0c0.47 1.405 1.146 2.354 2.028 2.847 0.88 0.487 1.789 0.573 2.726 0.26v0c0.557-0.186 0.992-0.494 1.306-0.923 0.312-0.435 0.543-0.931 0.695-1.488 0.16-0.553 0.258-1.163 0.295-1.83 0.037-0.667 0.076-1.331 0.116-1.991v0c0.01-0.855 0.055-1.718 0.136-2.589 0.079-0.878 0.262-1.699 0.548-2.463 0.28-0.762 0.679-1.441 1.198-2.037 0.518-0.596 1.233-1.046 2.145-1.35v0c0.848-0.284 1.701-0.383 2.56-0.297 0.859 0.086 1.666 0.354 2.422 0.805 0.756 0.451 1.437 1.078 2.044 1.881 0.615 0.808 1.114 1.784 1.496 2.929v0c0.451 1.348 0.63 2.663 0.539 3.947-0.092 1.283-0.338 2.449-0.74 3.498v0l-2.862-0.953c0.313-0.914 0.515-1.826 0.605-2.735 0.088-0.916-0.025-1.842-0.339-2.779v0c-0.451-1.348-1.092-2.235-1.923-2.66-0.823-0.421-1.646-0.494-2.47-0.219v0c-0.494 0.165-0.879 0.442-1.157 0.83-0.28 0.382-0.486 0.841-0.616 1.378-0.132 0.53-0.213 1.12-0.242 1.769-0.031 0.644-0.061 1.312-0.09 2.004v0c-0.035 0.863-0.085 1.735-0.149 2.615-0.062 0.886-0.235 1.718-0.517 2.494-0.274 0.781-0.696 1.485-1.267 2.113-0.569 0.634-1.354 1.118-2.353 1.452v0c-0.88 0.294-1.755 0.401-2.627 0.319-0.88-0.086-1.721-0.36-2.523-0.824-0.809-0.461-1.545-1.126-2.208-1.995-0.672-0.873-1.218-1.939-1.64-3.198z" fill="black"></path><path d="M28.329 223.45v0c-0.833-1.225-1.398-2.523-1.694-3.896-0.292-1.367-0.289-2.721 0.01-4.061 0.3-1.35 0.905-2.661 1.815-3.934 0.91-1.273 2.132-2.43 3.665-3.474v0c1.561-1.062 3.114-1.763 4.659-2.103 1.544-0.34 3.016-0.389 4.415-0.147 1.403 0.248 2.69 0.769 3.86 1.563 1.171 0.785 2.166 1.779 2.984 2.982v0c0.837 1.23 1.332 2.427 1.485 3.59 0.163 1.164 0.174 2.279 0.034 3.342v0l-3.167-0.207c0.122-0.865 0.129-1.702 0.024-2.51-0.1-0.812-0.402-1.587-0.904-2.326v0c-0.574-0.844-1.279-1.507-2.115-1.987-0.826-0.479-1.734-0.758-2.723-0.836-0.989-0.078-2.024 0.037-3.106 0.346-1.076 0.304-2.152 0.822-3.228 1.554v0c-1.07 0.728-1.946 1.529-2.626 2.403-0.675 0.871-1.158 1.768-1.449 2.693-0.286 0.921-0.358 1.858-0.218 2.811 0.14 0.954 0.497 1.853 1.071 2.697v0c0.589 0.866 1.319 1.536 2.19 2.009 0.865 0.477 1.752 0.838 2.661 1.083v0l-1.162 2.812c-1.319-0.338-2.537-0.877-3.654-1.618-1.119-0.732-2.061-1.66-2.827-2.786z" fill="black"></path><path d="M51.073 247.719l-2.81-2.563 15.187-16.644 2.81 2.564zM68.015 226.391v0c-0.547-0.499-0.853-1.09-0.917-1.772-0.065-0.691 0.141-1.298 0.618-1.821v0c0.499-0.547 1.092-0.815 1.777-0.804 0.676 0.012 1.288 0.267 1.834 0.766v0c0.552 0.504 0.865 1.092 0.938 1.764 0.074 0.681-0.139 1.296-0.638 1.843v0c-0.477 0.522-1.062 0.783-1.757 0.782-0.685-0.002-1.303-0.254-1.855-0.758z" fill="black"></path><path d="M79.649 266.601v0c-1.344-0.698-2.476-1.589-3.394-2.674-0.915-1.091-1.574-2.305-1.977-3.643-0.401-1.343-0.516-2.786-0.347-4.329 0.179-1.546 0.695-3.143 1.55-4.79v0c0.855-1.646 1.875-2.989 3.06-4.027 1.186-1.039 2.431-1.794 3.737-2.267 1.305-0.473 2.619-0.671 3.939-0.594 1.315 0.074 2.55 0.41 3.705 1.009v0c1.262 0.655 2.279 1.461 3.052 2.419 0.773 0.958 1.284 2.023 1.532 3.197 0.242 1.171 0.244 2.427 0.006 3.769-0.241 1.333-0.732 2.714-1.472 4.142v0c-0.184 0.355-0.375 0.7-0.571 1.034-0.19 0.337-0.376 0.617-0.559 0.838v0l-13.503-7.009c-0.968 2.212-1.18 4.252-0.639 6.119 0.548 1.871 1.781 3.304 3.7 4.3v0c0.959 0.498 1.92 0.812 2.882 0.943 0.953 0.134 1.921 0.159 2.905 0.076v0l0.046 2.843c-1.168 0.093-2.392 0.067-3.67-0.078-1.287-0.142-2.615-0.568-3.982-1.278zM79.63 251.233v0l10.696 5.551c1.054-2.031 1.424-3.802 1.11-5.311-0.318-1.503-1.258-2.66-2.822-3.471v0c-0.711-0.369-1.46-0.585-2.246-0.648-0.79-0.057-1.584 0.046-2.382 0.309-0.798 0.263-1.568 0.69-2.312 1.281-0.743 0.592-1.425 1.354-2.044 2.289z" fill="black"></path><path d="M113.46 277.389l-3.739-0.698 4.133-22.148 3.099 0.579-0.28 3.246 0.138 0.026c1.261-0.864 2.545-1.544 3.853-2.04 1.301-0.497 2.726-0.601 4.273-0.313v0c2.342 0.437 3.918 1.485 4.729 3.143 0.803 1.664 0.938 3.922 0.405 6.775v0l-2.62 14.041-3.739-0.698 2.527-13.539c0.392-2.099 0.339-3.673-0.157-4.723-0.496-1.05-1.473-1.71-2.929-1.982v0c-1.154-0.215-2.225-0.117-3.212 0.297-0.993 0.412-2.155 1.074-3.487 1.986v0z" fill="black"></path><path d="M159.868 279.28v0c-1.2 0.14-2.229 0.072-3.087-0.204-0.859-0.276-1.577-0.706-2.156-1.29-0.579-0.584-1.031-1.324-1.357-2.22-0.32-0.897-0.544-1.898-0.673-3.005v0l-1.445-12.388-3.321 0.388-0.332-2.853 3.472-0.637-0.263-6.318 3.171-0.37 0.731 6.263 6.035-0.704 0.359 3.082-6.034 0.704 1.45 12.437c0.161 1.379 0.54 2.416 1.139 3.112 0.591 0.69 1.533 0.96 2.826 0.809v0c0.398-0.046 0.818-0.156 1.261-0.328 0.449-0.18 0.847-0.368 1.194-0.563v0l1.079 2.767c-0.591 0.291-1.238 0.561-1.941 0.81-0.702 0.257-1.405 0.426-2.108 0.508z" fill="black"></path><path d="M188.176 271.64l-3.608 1.204-7.132-21.372 3.608-1.204zM177.808 246.452v0c-0.703 0.234-1.367 0.214-1.994-0.063-0.635-0.28-1.065-0.756-1.288-1.427v0c-0.234-0.703-0.18-1.35 0.163-1.943 0.34-0.585 0.861-0.994 1.564-1.229v0c0.709-0.237 1.375-0.223 1.997 0.04 0.631 0.268 1.064 0.753 1.298 1.456v0c0.224 0.671 0.166 1.309-0.173 1.915-0.335 0.597-0.857 1.014-1.567 1.251z" fill="black"></path><path d="M219.289 255.391v0c-0.879 0.582-1.93 0.971-3.154 1.166-1.22 0.2-2.491 0.198-3.811-0.007v0l-0.117 0.077 1.016 2.113-2.553 1.692-18.237-27.515 3.17-2.101 4.966 7.491 2.172 3.46c0.357-1.309 0.871-2.551 1.543-3.724 0.675-1.168 1.541-2.102 2.597-2.803v0c1.207-0.8 2.424-1.283 3.652-1.448 1.227-0.165 2.434-0.036 3.619 0.388 1.187 0.414 2.331 1.101 3.431 2.06 1.1 0.96 2.128 2.16 3.083 3.601v0c1.058 1.596 1.786 3.171 2.183 4.725 0.397 1.554 0.515 3.017 0.352 4.39-0.167 1.367-0.591 2.605-1.273 3.713-0.68 1.099-1.56 2.007-2.639 2.722zM216.977 253.081v0c0.773-0.512 1.372-1.161 1.796-1.947 0.428-0.78 0.671-1.645 0.729-2.596 0.062-0.946-0.082-1.971-0.431-3.077-0.343-1.109-0.898-2.243-1.665-3.4v0c-0.682-1.029-1.394-1.91-2.136-2.643-0.748-0.729-1.523-1.264-2.324-1.605-0.802-0.341-1.628-0.47-2.478-0.387-0.85 0.083-1.714 0.416-2.593 0.998v0c-1.518 1.006-2.63 2.964-3.336 5.874v0l6.536 9.861c1.299 0.172 2.454 0.139 3.465-0.099 1.007-0.243 1.82-0.57 2.437-0.979z" fill="black"></path><path d="M248.497 227.594v0c-1.506 1.889-3.181 2.797-5.027 2.726-1.845-0.062-3.904-1-6.179-2.814v0l-11.162-8.896 2.402-3.014 10.762 8.579c1.67 1.331 3.08 2.029 4.232 2.093 1.153 0.074 2.193-0.471 3.121-1.634v0c0.732-0.918 1.139-1.916 1.222-2.994 0.088-1.074-0.051-2.447-0.416-4.12v0l-12.507-9.97 2.371-2.974 17.618 14.044-1.965 2.465-2.955-1.946-0.087 0.11c0.308 1.594 0.392 3.073 0.251 4.437-0.139 1.374-0.7 2.676-1.681 3.908z" fill="black"></path><path d="M275.848 198.499v0c-0.179 0.496-0.377 0.935-0.594 1.318-0.223 0.381-0.469 0.717-0.738 1.01v0l-2.581-1.721c0.14-0.212 0.301-0.448 0.48-0.71 0.176-0.27 0.31-0.534 0.403-0.79v0c0.443-1.224 0.377-2.376-0.197-3.457-0.581-1.083-1.448-2.078-2.603-2.985v0l-1.389-1.045-24.309 0.819 1.338-3.699 13.291-0.078c1.044 0.016 2.147 0.028 3.308 0.036 1.167 0.011 2.301 0.034 3.401 0.07v0l0.062-0.169c-0.838-0.665-1.728-1.334-2.669-2.009-0.944-0.668-1.827-1.314-2.652-1.938v0l-10.356-8.035 1.263-3.492 20.042 16.275c0.912 0.756 1.735 1.529 2.471 2.32 0.729 0.789 1.308 1.623 1.735 2.501 0.421 0.876 0.672 1.79 0.754 2.742 0.081 0.952-0.072 1.964-0.46 3.037z" fill="black"></path></g></svg></g></svg></g></svg></g></svg></g><defs><mask></mask></defs></svg><rect width="280" height="280" fill="black" stroke="none" visibility="hidden"></rect></g></mask><mask><g id="SvgjsG1634"><svg viewBox="0 0 280 280" height="280" width="280"><g><svg viewBox="0 0 280 280" height="280" width="280"><g><svg viewBox="0 0 280 280" height="280" width="280"><g id="SvgjsG1633"><svg viewBox="0 0 280 280" height="280" width="280" id="SvgjsSvg1632"><g><svg viewBox="0 0 280 280" height="280" width="280"><g transform="matrix(1,0,0,1,74.00336708925556,74.00336708925556)"><svg viewBox="0 0 131.99326582148888 131.99326582148888" height="131.99326582148888" width="131.99326582148888"><g id="SvgjsG1631"><circle r="66" cx="65.99663291074444" cy="65.99663291074444" fill="black"></circle></g></svg></g><g id="SvgjsG1630"></g><g id="SvgjsG1629"><path d="M9.864 187.866v0c-0.51-1.525-0.716-3.067-0.619-4.627 0.095-1.566 0.399-3.004 0.911-4.315v0l3.023 0.994c-0.452 1.193-0.749 2.358-0.889 3.495-0.14 1.137 0.006 2.352 0.438 3.643v0c0.47 1.405 1.146 2.354 2.028 2.847 0.88 0.487 1.789 0.573 2.726 0.26v0c0.557-0.186 0.992-0.494 1.306-0.923 0.312-0.435 0.543-0.931 0.695-1.488 0.16-0.553 0.258-1.163 0.295-1.83 0.037-0.667 0.076-1.331 0.116-1.991v0c0.01-0.855 0.055-1.718 0.136-2.589 0.079-0.878 0.262-1.699 0.548-2.463 0.28-0.762 0.679-1.441 1.198-2.037 0.518-0.596 1.233-1.046 2.145-1.35v0c0.848-0.284 1.701-0.383 2.56-0.297 0.859 0.086 1.666 0.354 2.422 0.805 0.756 0.451 1.437 1.078 2.044 1.881 0.615 0.808 1.114 1.784 1.496 2.929v0c0.451 1.348 0.63 2.663 0.539 3.947-0.092 1.283-0.338 2.449-0.74 3.498v0l-2.862-0.953c0.313-0.914 0.515-1.826 0.605-2.735 0.088-0.916-0.025-1.842-0.339-2.779v0c-0.451-1.348-1.092-2.235-1.923-2.66-0.823-0.421-1.646-0.494-2.47-0.219v0c-0.494 0.165-0.879 0.442-1.157 0.83-0.28 0.382-0.486 0.841-0.616 1.378-0.132 0.53-0.213 1.12-0.242 1.769-0.031 0.644-0.061 1.312-0.09 2.004v0c-0.035 0.863-0.085 1.735-0.149 2.615-0.062 0.886-0.235 1.718-0.517 2.494-0.274 0.781-0.696 1.485-1.267 2.113-0.569 0.634-1.354 1.118-2.353 1.452v0c-0.88 0.294-1.755 0.401-2.627 0.319-0.88-0.086-1.721-0.36-2.523-0.824-0.809-0.461-1.545-1.126-2.208-1.995-0.672-0.873-1.218-1.939-1.64-3.198z" fill="black"></path><path d="M28.329 223.45v0c-0.833-1.225-1.398-2.523-1.694-3.896-0.292-1.367-0.289-2.721 0.01-4.061 0.3-1.35 0.905-2.661 1.815-3.934 0.91-1.273 2.132-2.43 3.665-3.474v0c1.561-1.062 3.114-1.763 4.659-2.103 1.544-0.34 3.016-0.389 4.415-0.147 1.403 0.248 2.69 0.769 3.86 1.563 1.171 0.785 2.166 1.779 2.984 2.982v0c0.837 1.23 1.332 2.427 1.485 3.59 0.163 1.164 0.174 2.279 0.034 3.342v0l-3.167-0.207c0.122-0.865 0.129-1.702 0.024-2.51-0.1-0.812-0.402-1.587-0.904-2.326v0c-0.574-0.844-1.279-1.507-2.115-1.987-0.826-0.479-1.734-0.758-2.723-0.836-0.989-0.078-2.024 0.037-3.106 0.346-1.076 0.304-2.152 0.822-3.228 1.554v0c-1.07 0.728-1.946 1.529-2.626 2.403-0.675 0.871-1.158 1.768-1.449 2.693-0.286 0.921-0.358 1.858-0.218 2.811 0.14 0.954 0.497 1.853 1.071 2.697v0c0.589 0.866 1.319 1.536 2.19 2.009 0.865 0.477 1.752 0.838 2.661 1.083v0l-1.162 2.812c-1.319-0.338-2.537-0.877-3.654-1.618-1.119-0.732-2.061-1.66-2.827-2.786z" fill="black"></path><path d="M51.073 247.719l-2.81-2.563 15.187-16.644 2.81 2.564zM68.015 226.391v0c-0.547-0.499-0.853-1.09-0.917-1.772-0.065-0.691 0.141-1.298 0.618-1.821v0c0.499-0.547 1.092-0.815 1.777-0.804 0.676 0.012 1.288 0.267 1.834 0.766v0c0.552 0.504 0.865 1.092 0.938 1.764 0.074 0.681-0.139 1.296-0.638 1.843v0c-0.477 0.522-1.062 0.783-1.757 0.782-0.685-0.002-1.303-0.254-1.855-0.758z" fill="black"></path><path d="M79.649 266.601v0c-1.344-0.698-2.476-1.589-3.394-2.674-0.915-1.091-1.574-2.305-1.977-3.643-0.401-1.343-0.516-2.786-0.347-4.329 0.179-1.546 0.695-3.143 1.55-4.79v0c0.855-1.646 1.875-2.989 3.06-4.027 1.186-1.039 2.431-1.794 3.737-2.267 1.305-0.473 2.619-0.671 3.939-0.594 1.315 0.074 2.55 0.41 3.705 1.009v0c1.262 0.655 2.279 1.461 3.052 2.419 0.773 0.958 1.284 2.023 1.532 3.197 0.242 1.171 0.244 2.427 0.006 3.769-0.241 1.333-0.732 2.714-1.472 4.142v0c-0.184 0.355-0.375 0.7-0.571 1.034-0.19 0.337-0.376 0.617-0.559 0.838v0l-13.503-7.009c-0.968 2.212-1.18 4.252-0.639 6.119 0.548 1.871 1.781 3.304 3.7 4.3v0c0.959 0.498 1.92 0.812 2.882 0.943 0.953 0.134 1.921 0.159 2.905 0.076v0l0.046 2.843c-1.168 0.093-2.392 0.067-3.67-0.078-1.287-0.142-2.615-0.568-3.982-1.278zM79.63 251.233v0l10.696 5.551c1.054-2.031 1.424-3.802 1.11-5.311-0.318-1.503-1.258-2.66-2.822-3.471v0c-0.711-0.369-1.46-0.585-2.246-0.648-0.79-0.057-1.584 0.046-2.382 0.309-0.798 0.263-1.568 0.69-2.312 1.281-0.743 0.592-1.425 1.354-2.044 2.289z" fill="black"></path><path d="M113.46 277.389l-3.739-0.698 4.133-22.148 3.099 0.579-0.28 3.246 0.138 0.026c1.261-0.864 2.545-1.544 3.853-2.04 1.301-0.497 2.726-0.601 4.273-0.313v0c2.342 0.437 3.918 1.485 4.729 3.143 0.803 1.664 0.938 3.922 0.405 6.775v0l-2.62 14.041-3.739-0.698 2.527-13.539c0.392-2.099 0.339-3.673-0.157-4.723-0.496-1.05-1.473-1.71-2.929-1.982v0c-1.154-0.215-2.225-0.117-3.212 0.297-0.993 0.412-2.155 1.074-3.487 1.986v0z" fill="black"></path><path d="M159.868 279.28v0c-1.2 0.14-2.229 0.072-3.087-0.204-0.859-0.276-1.577-0.706-2.156-1.29-0.579-0.584-1.031-1.324-1.357-2.22-0.32-0.897-0.544-1.898-0.673-3.005v0l-1.445-12.388-3.321 0.388-0.332-2.853 3.472-0.637-0.263-6.318 3.171-0.37 0.731 6.263 6.035-0.704 0.359 3.082-6.034 0.704 1.45 12.437c0.161 1.379 0.54 2.416 1.139 3.112 0.591 0.69 1.533 0.96 2.826 0.809v0c0.398-0.046 0.818-0.156 1.261-0.328 0.449-0.18 0.847-0.368 1.194-0.563v0l1.079 2.767c-0.591 0.291-1.238 0.561-1.941 0.81-0.702 0.257-1.405 0.426-2.108 0.508z" fill="black"></path><path d="M188.176 271.64l-3.608 1.204-7.132-21.372 3.608-1.204zM177.808 246.452v0c-0.703 0.234-1.367 0.214-1.994-0.063-0.635-0.28-1.065-0.756-1.288-1.427v0c-0.234-0.703-0.18-1.35 0.163-1.943 0.34-0.585 0.861-0.994 1.564-1.229v0c0.709-0.237 1.375-0.223 1.997 0.04 0.631 0.268 1.064 0.753 1.298 1.456v0c0.224 0.671 0.166 1.309-0.173 1.915-0.335 0.597-0.857 1.014-1.567 1.251z" fill="black"></path><path d="M219.289 255.391v0c-0.879 0.582-1.93 0.971-3.154 1.166-1.22 0.2-2.491 0.198-3.811-0.007v0l-0.117 0.077 1.016 2.113-2.553 1.692-18.237-27.515 3.17-2.101 4.966 7.491 2.172 3.46c0.357-1.309 0.871-2.551 1.543-3.724 0.675-1.168 1.541-2.102 2.597-2.803v0c1.207-0.8 2.424-1.283 3.652-1.448 1.227-0.165 2.434-0.036 3.619 0.388 1.187 0.414 2.331 1.101 3.431 2.06 1.1 0.96 2.128 2.16 3.083 3.601v0c1.058 1.596 1.786 3.171 2.183 4.725 0.397 1.554 0.515 3.017 0.352 4.39-0.167 1.367-0.591 2.605-1.273 3.713-0.68 1.099-1.56 2.007-2.639 2.722zM216.977 253.081v0c0.773-0.512 1.372-1.161 1.796-1.947 0.428-0.78 0.671-1.645 0.729-2.596 0.062-0.946-0.082-1.971-0.431-3.077-0.343-1.109-0.898-2.243-1.665-3.4v0c-0.682-1.029-1.394-1.91-2.136-2.643-0.748-0.729-1.523-1.264-2.324-1.605-0.802-0.341-1.628-0.47-2.478-0.387-0.85 0.083-1.714 0.416-2.593 0.998v0c-1.518 1.006-2.63 2.964-3.336 5.874v0l6.536 9.861c1.299 0.172 2.454 0.139 3.465-0.099 1.007-0.243 1.82-0.57 2.437-0.979z" fill="black"></path><path d="M248.497 227.594v0c-1.506 1.889-3.181 2.797-5.027 2.726-1.845-0.062-3.904-1-6.179-2.814v0l-11.162-8.896 2.402-3.014 10.762 8.579c1.67 1.331 3.08 2.029 4.232 2.093 1.153 0.074 2.193-0.471 3.121-1.634v0c0.732-0.918 1.139-1.916 1.222-2.994 0.088-1.074-0.051-2.447-0.416-4.12v0l-12.507-9.97 2.371-2.974 17.618 14.044-1.965 2.465-2.955-1.946-0.087 0.11c0.308 1.594 0.392 3.073 0.251 4.437-0.139 1.374-0.7 2.676-1.681 3.908z" fill="black"></path><path d="M275.848 198.499v0c-0.179 0.496-0.377 0.935-0.594 1.318-0.223 0.381-0.469 0.717-0.738 1.01v0l-2.581-1.721c0.14-0.212 0.301-0.448 0.48-0.71 0.176-0.27 0.31-0.534 0.403-0.79v0c0.443-1.224 0.377-2.376-0.197-3.457-0.581-1.083-1.448-2.078-2.603-2.985v0l-1.389-1.045-24.309 0.819 1.338-3.699 13.291-0.078c1.044 0.016 2.147 0.028 3.308 0.036 1.167 0.011 2.301 0.034 3.401 0.07v0l0.062-0.169c-0.838-0.665-1.728-1.334-2.669-2.009-0.944-0.668-1.827-1.314-2.652-1.938v0l-10.356-8.035 1.263-3.492 20.042 16.275c0.912 0.756 1.735 1.529 2.471 2.32 0.729 0.789 1.308 1.623 1.735 2.501 0.421 0.876 0.672 1.79 0.754 2.742 0.081 0.952-0.072 1.964-0.46 3.037z" fill="black"></path></g></svg></g></svg></g></svg></g></svg></g><defs><mask></mask></defs><mask><g id="SvgjsG1628"><svg viewBox="0 0 280 280" height="280" width="280"><g><svg viewBox="0 0 280 280" height="280" width="280"><g><svg viewBox="0 0 280 280" height="280" width="280"><g id="SvgjsG1627"><svg viewBox="0 0 280 280" height="280" width="280" id="SvgjsSvg1626"><g><svg viewBox="0 0 280 280" height="280" width="280"><g transform="matrix(1,0,0,1,74.00336708925556,74.00336708925556)"><svg viewBox="0 0 131.99326582148888 131.99326582148888" height="131.99326582148888" width="131.99326582148888"><g id="SvgjsG1625"><circle r="66" cx="65.99663291074444" cy="65.99663291074444" fill="black"></circle></g></svg></g><g id="SvgjsG1624"><path d="M31.143 104.258v0c-0.463 1.407-1.159 2.66-2.089 3.759-0.932 1.105-1.947 2.001-3.043 2.687v0l-1.688-2.398c0.987-0.631 1.848-1.328 2.584-2.09 0.729-0.765 1.289-1.743 1.681-2.935v0c0.427-1.3 0.449-2.371 0.066-3.213-0.381-0.849-1.003-1.415-1.865-1.698v0c-0.513-0.169-1.005-0.179-1.475-0.032-0.47 0.148-0.916 0.384-1.34 0.708-0.423 0.325-0.83 0.721-1.223 1.189-0.395 0.474-0.788 0.945-1.181 1.413v0c-0.472 0.624-0.982 1.236-1.53 1.836-0.542 0.602-1.126 1.108-1.754 1.521-0.625 0.406-1.294 0.688-2.006 0.847-0.71 0.153-1.487 0.091-2.33-0.187v0c-0.78-0.256-1.464-0.653-2.053-1.191-0.589-0.538-1.038-1.18-1.347-1.928-0.309-0.748-0.469-1.587-0.479-2.517-0.01-0.931 0.159-1.925 0.506-2.984v0c0.408-1.242 1.002-2.312 1.781-3.208 0.775-0.904 1.597-1.631 2.467-2.181v0l1.592 2.272c-0.736 0.51-1.386 1.076-1.949 1.698-0.563 0.623-0.987 1.368-1.273 2.237v0c-0.408 1.242-0.426 2.248-0.054 3.017 0.379 0.771 0.945 1.28 1.7 1.528v0c0.463 0.152 0.903 0.16 1.32 0.023 0.421-0.128 0.826-0.354 1.213-0.676 0.393-0.32 0.778-0.71 1.153-1.17 0.376-0.459 0.765-0.939 1.169-1.439v0c0.504-0.614 1.022-1.23 1.555-1.848 0.527-0.62 1.109-1.142 1.747-1.565 0.631-0.425 1.333-0.71 2.105-0.857 0.767-0.155 1.611-0.082 2.53 0.22v0c0.811 0.267 1.518 0.671 2.119 1.213 0.602 0.542 1.075 1.207 1.42 1.995 0.339 0.786 0.515 1.683 0.527 2.691 0.013 1.009-0.173 2.096-0.556 3.263z" fill="black"></path><path d="M46.654 74.162v0c-0.765 1.134-1.683 2.065-2.752 2.792-1.072 0.718-2.235 1.177-3.489 1.377-1.248 0.204-2.574 0.135-3.977-0.208-1.403-0.343-2.812-0.992-4.228-1.947v0c-1.438-0.97-2.568-2.058-3.389-3.263-0.817-1.211-1.362-2.456-1.634-3.735-0.263-1.28-0.259-2.557 0.013-3.831 0.275-1.279 0.786-2.472 1.532-3.578v0c0.765-1.134 1.62-1.966 2.565-2.496 0.945-0.53 1.896-0.919 2.852-1.167v0l0.907 2.773c-0.784 0.196-1.504 0.475-2.159 0.838-0.655 0.363-1.214 0.887-1.677 1.573v0c-0.526 0.78-0.854 1.605-0.983 2.476-0.127 0.88-0.053 1.755 0.222 2.625 0.265 0.871 0.716 1.719 1.352 2.542 0.63 0.82 1.441 1.563 2.431 2.231v0c0.99 0.668 1.974 1.143 2.951 1.424 0.983 0.285 1.917 0.392 2.802 0.321 0.894-0.073 1.721-0.332 2.481-0.778 0.769-0.447 1.414-1.058 1.936-1.833v0c0.545-0.808 0.872-1.662 0.98-2.562 0.112-0.906 0.116-1.789 0.012-2.648v0l2.812 0.037c0.154 1.239 0.109 2.464-0.137 3.675-0.251 1.207-0.725 2.328-1.423 3.362z" fill="black"></path><path d="M65.44 52.742l-2.59 2.359-13.981-15.345 2.59-2.359zM47.315 35.39v0c-0.503 0.458-1.074 0.689-1.711 0.693-0.633-0.001-1.17-0.243-1.61-0.727v0c-0.463-0.508-0.661-1.072-0.595-1.693 0.072-0.625 0.359-1.167 0.862-1.624v0c0.508-0.463 1.074-0.699 1.698-0.708 0.629-0.013 1.175 0.234 1.638 0.742v0c0.44 0.483 0.629 1.042 0.566 1.677-0.058 0.63-0.341 1.177-0.848 1.64z" fill="black"></path><path d="M90.179 37.746v0c-1.24 0.638-2.513 1.016-3.819 1.133-1.303 0.108-2.567-0.044-3.792-0.456-1.22-0.415-2.363-1.098-3.431-2.05-1.071-0.957-1.997-2.195-2.78-3.714v0c-0.782-1.519-1.249-3.001-1.4-4.446-0.151-1.446-0.056-2.782 0.288-4.01 0.346-1.237 0.897-2.331 1.653-3.283 0.762-0.955 1.673-1.706 2.735-2.253v0c1.163-0.599 2.312-0.932 3.449-0.999 1.133-0.073 2.204 0.111 3.211 0.553 1.014 0.439 1.957 1.105 2.831 1.998 0.882 0.897 1.662 2.004 2.341 3.321v0c0.168 0.326 0.327 0.65 0.477 0.97 0.153 0.326 0.261 0.616 0.323 0.869v0l-12.458 6.416c1.142 1.911 2.561 3.158 4.257 3.74 1.699 0.589 3.436 0.426 5.21-0.487v0c0.884-0.455 1.631-1.009 2.241-1.66 0.61-0.652 1.145-1.37 1.603-2.155v0l2.162 1.488c-0.553 0.923-1.224 1.828-2.013 2.714-0.795 0.89-1.825 1.66-3.088 2.311zM78.617 29.57v0l9.877-5.086c-0.965-1.875-2.099-3.092-3.4-3.653-1.296-0.564-2.668-0.473-4.116 0.273v0c-0.658 0.339-1.219 0.789-1.68 1.35-0.465 0.555-0.811 1.202-1.038 1.941-0.224 0.746-0.314 1.554-0.271 2.425 0.052 0.874 0.262 1.79 0.628 2.75z" fill="black"></path><path d="M117.871 28.021l-3.445 0.633-3.747-20.419 2.855-0.523 0.834 2.879 0.128-0.023c0.798-1.157 1.679-2.164 2.641-3.019 0.955-0.86 2.147-1.422 3.579-1.684v0c2.153-0.395 3.851-0.011 5.096 1.151 1.238 1.164 2.098 3.061 2.581 5.693v0l2.375 12.946-3.446 0.632-2.29-12.483c-0.354-1.93-0.918-3.264-1.691-4.004-0.768-0.748-1.825-0.998-3.171-0.752v0c-1.07 0.196-1.959 0.638-2.667 1.324-0.716 0.681-1.498 1.635-2.345 2.862v0z" fill="black"></path><path d="M157.196 27.525v0c-1.1-0.131-2.007-0.41-2.723-0.838-0.709-0.427-1.259-0.966-1.652-1.618-0.394-0.645-0.639-1.407-0.736-2.285-0.098-0.872-0.086-1.815 0.034-2.828v0l1.358-11.41-3.061-0.364 0.313-2.634 3.255 0.176 1.115-5.724 2.922 0.348-0.687 5.774 5.556 0.662-0.339 2.842-5.556-0.661-1.362 11.45c-0.151 1.272-0.037 2.284 0.344 3.034 0.388 0.745 1.176 1.188 2.362 1.33v0c0.371 0.044 0.775 0.035 1.213-0.027 0.437-0.062 0.833-0.143 1.188-0.242v0l0.363 2.704c-0.587 0.132-1.221 0.238-1.902 0.318-0.687 0.073-1.356 0.07-2.005-0.007z" fill="black"></path><path d="M181.939 33.41l-3.313-1.139 6.75-19.631 3.313 1.139zM188.46 9.181v0c-0.644-0.221-1.12-0.611-1.429-1.169-0.303-0.556-0.348-1.143-0.135-1.761v0c0.223-0.65 0.623-1.095 1.199-1.334 0.583-0.237 1.196-0.245 1.84-0.024v0c0.65 0.223 1.129 0.607 1.435 1.15 0.314 0.545 0.359 1.143 0.135 1.793v0c-0.213 0.618-0.612 1.052-1.199 1.302-0.581 0.252-1.196 0.266-1.846 0.043z" fill="black"></path><path d="M207.574 48.354v0c-0.8-0.544-1.5-1.301-2.098-2.272-0.595-0.977-1.04-2.062-1.335-3.254v0l-0.1-0.068-1.446 1.595-2.335-1.586 17.092-25.162 2.898 1.969-4.657 6.855-2.189 3.063c1.243-0.156 2.481-0.15 3.714 0.018 1.231 0.159 2.33 0.566 3.296 1.223v0c1.109 0.754 1.949 1.626 2.518 2.617 0.563 0.988 0.876 2.059 0.938 3.215 0.053 1.157-0.135 2.372-0.565 3.646-0.439 1.275-1.106 2.572-2.002 3.891v0c-0.99 1.457-2.078 2.626-3.265 3.506-1.185 0.889-2.391 1.501-3.619 1.837-1.228 0.335-2.43 0.406-3.605 0.213-1.172-0.199-2.252-0.634-3.24-1.306zM208.731 45.583v0c0.707 0.48 1.469 0.764 2.288 0.852 0.819 0.089 1.642-0.006 2.468-0.284 0.83-0.283 1.653-0.765 2.469-1.444 0.826-0.681 1.599-1.552 2.319-2.612v0c0.641-0.944 1.143-1.861 1.506-2.751 0.363-0.891 0.55-1.736 0.561-2.536 0.011-0.799-0.166-1.549-0.53-2.247-0.373-0.697-0.96-1.318-1.761-1.862v0c-1.391-0.945-3.451-1.207-6.181-0.787v0l-6.119 9.009c0.306 1.176 0.737 2.151 1.293 2.923 0.556 0.773 1.118 1.352 1.687 1.739z" fill="black"></path><path d="M231.382 71.601v0c-1.368-1.751-1.823-3.445-1.365-5.081 0.454-1.641 1.735-3.286 3.843-4.933v0l10.364-8.097 2.182 2.793-9.994 7.807c-1.551 1.212-2.48 2.327-2.785 3.344-0.306 1.018-0.037 2.066 0.805 3.144v0c0.665 0.852 1.471 1.433 2.417 1.744 0.946 0.311 2.209 0.48 3.788 0.508v0l11.61-9.07 2.157 2.761-16.359 12.779-1.787-2.287 2.371-2.233-0.08-0.103c-1.49-0.064-2.834-0.305-4.033-0.723-1.194-0.422-2.238-1.207-3.134-2.353z" fill="black"></path><path d="M238.495 100.583v0c-0.16-0.453-0.272-0.88-0.336-1.282-0.071-0.4-0.093-0.784-0.069-1.154v0l2.841-0.283c0.025 0.232 0.051 0.495 0.078 0.79 0.026 0.295 0.082 0.562 0.166 0.801v0c0.398 1.126 1.119 1.904 2.164 2.335 1.046 0.437 2.245 0.643 3.594 0.618v0l1.61-0.07 16.829-14.795 1.212 3.425-9.422 7.823c-0.751 0.598-1.546 1.233-2.384 1.905-0.832 0.669-1.655 1.314-2.468 1.934v0l0.056 0.161c0.992-0.018 2.02-0.063 3.084-0.135 1.064-0.072 2.071-0.127 3.021-0.166v0l12.074-0.321 1.138 3.218-23.791 0.122c-1.087-0.012-2.125-0.084-3.113-0.215-0.982-0.134-1.879-0.39-2.692-0.768-0.813-0.378-1.528-0.879-2.145-1.503-0.613-0.633-1.095-1.446-1.447-2.44z" fill="black"></path><path d="M2.263 142.132c0-6.417 5.202-11.62 11.619-11.62 6.417 0 11.62 5.202 11.62 11.62 0 6.417-5.202 11.62-11.62 11.62-6.417 0-11.62-5.202-11.619-11.62z" fill="black"></path><path d="M254.498 142.132c0-6.417 5.202-11.62 11.62-11.62 6.417 0 11.62 5.202 11.619 11.62 0 6.417-5.202 11.62-11.619 11.62-6.417 0-11.62-5.202-11.62-11.62z" fill="black"></path></g><g id="SvgjsG1623"><path d="M9.864 187.866v0c-0.51-1.525-0.716-3.067-0.619-4.627 0.095-1.566 0.399-3.004 0.911-4.315v0l3.023 0.994c-0.452 1.193-0.749 2.358-0.889 3.495-0.14 1.137 0.006 2.352 0.438 3.643v0c0.47 1.405 1.146 2.354 2.028 2.847 0.88 0.487 1.789 0.573 2.726 0.26v0c0.557-0.186 0.992-0.494 1.306-0.923 0.312-0.435 0.543-0.931 0.695-1.488 0.16-0.553 0.258-1.163 0.295-1.83 0.037-0.667 0.076-1.331 0.116-1.991v0c0.01-0.855 0.055-1.718 0.136-2.589 0.079-0.878 0.262-1.699 0.548-2.463 0.28-0.762 0.679-1.441 1.198-2.037 0.518-0.596 1.233-1.046 2.145-1.35v0c0.848-0.284 1.701-0.383 2.56-0.297 0.859 0.086 1.666 0.354 2.422 0.805 0.756 0.451 1.437 1.078 2.044 1.881 0.615 0.808 1.114 1.784 1.496 2.929v0c0.451 1.348 0.63 2.663 0.539 3.947-0.092 1.283-0.338 2.449-0.74 3.498v0l-2.862-0.953c0.313-0.914 0.515-1.826 0.605-2.735 0.088-0.916-0.025-1.842-0.339-2.779v0c-0.451-1.348-1.092-2.235-1.923-2.66-0.823-0.421-1.646-0.494-2.47-0.219v0c-0.494 0.165-0.879 0.442-1.157 0.83-0.28 0.382-0.486 0.841-0.616 1.378-0.132 0.53-0.213 1.12-0.242 1.769-0.031 0.644-0.061 1.312-0.09 2.004v0c-0.035 0.863-0.085 1.735-0.149 2.615-0.062 0.886-0.235 1.718-0.517 2.494-0.274 0.781-0.696 1.485-1.267 2.113-0.569 0.634-1.354 1.118-2.353 1.452v0c-0.88 0.294-1.755 0.401-2.627 0.319-0.88-0.086-1.721-0.36-2.523-0.824-0.809-0.461-1.545-1.126-2.208-1.995-0.672-0.873-1.218-1.939-1.64-3.198z" fill="black"></path><path d="M28.329 223.45v0c-0.833-1.225-1.398-2.523-1.694-3.896-0.292-1.367-0.289-2.721 0.01-4.061 0.3-1.35 0.905-2.661 1.815-3.934 0.91-1.273 2.132-2.43 3.665-3.474v0c1.561-1.062 3.114-1.763 4.659-2.103 1.544-0.34 3.016-0.389 4.415-0.147 1.403 0.248 2.69 0.769 3.86 1.563 1.171 0.785 2.166 1.779 2.984 2.982v0c0.837 1.23 1.332 2.427 1.485 3.59 0.163 1.164 0.174 2.279 0.034 3.342v0l-3.167-0.207c0.122-0.865 0.129-1.702 0.024-2.51-0.1-0.812-0.402-1.587-0.904-2.326v0c-0.574-0.844-1.279-1.507-2.115-1.987-0.826-0.479-1.734-0.758-2.723-0.836-0.989-0.078-2.024 0.037-3.106 0.346-1.076 0.304-2.152 0.822-3.228 1.554v0c-1.07 0.728-1.946 1.529-2.626 2.403-0.675 0.871-1.158 1.768-1.449 2.693-0.286 0.921-0.358 1.858-0.218 2.811 0.14 0.954 0.497 1.853 1.071 2.697v0c0.589 0.866 1.319 1.536 2.19 2.009 0.865 0.477 1.752 0.838 2.661 1.083v0l-1.162 2.812c-1.319-0.338-2.537-0.877-3.654-1.618-1.119-0.732-2.061-1.66-2.827-2.786z" fill="black"></path><path d="M51.073 247.719l-2.81-2.563 15.187-16.644 2.81 2.564zM68.015 226.391v0c-0.547-0.499-0.853-1.09-0.917-1.772-0.065-0.691 0.141-1.298 0.618-1.821v0c0.499-0.547 1.092-0.815 1.777-0.804 0.676 0.012 1.288 0.267 1.834 0.766v0c0.552 0.504 0.865 1.092 0.938 1.764 0.074 0.681-0.139 1.296-0.638 1.843v0c-0.477 0.522-1.062 0.783-1.757 0.782-0.685-0.002-1.303-0.254-1.855-0.758z" fill="black"></path><path d="M79.649 266.601v0c-1.344-0.698-2.476-1.589-3.394-2.674-0.915-1.091-1.574-2.305-1.977-3.643-0.401-1.343-0.516-2.786-0.347-4.329 0.179-1.546 0.695-3.143 1.55-4.79v0c0.855-1.646 1.875-2.989 3.06-4.027 1.186-1.039 2.431-1.794 3.737-2.267 1.305-0.473 2.619-0.671 3.939-0.594 1.315 0.074 2.55 0.41 3.705 1.009v0c1.262 0.655 2.279 1.461 3.052 2.419 0.773 0.958 1.284 2.023 1.532 3.197 0.242 1.171 0.244 2.427 0.006 3.769-0.241 1.333-0.732 2.714-1.472 4.142v0c-0.184 0.355-0.375 0.7-0.571 1.034-0.19 0.337-0.376 0.617-0.559 0.838v0l-13.503-7.009c-0.968 2.212-1.18 4.252-0.639 6.119 0.548 1.871 1.781 3.304 3.7 4.3v0c0.959 0.498 1.92 0.812 2.882 0.943 0.953 0.134 1.921 0.159 2.905 0.076v0l0.046 2.843c-1.168 0.093-2.392 0.067-3.67-0.078-1.287-0.142-2.615-0.568-3.982-1.278zM79.63 251.233v0l10.696 5.551c1.054-2.031 1.424-3.802 1.11-5.311-0.318-1.503-1.258-2.66-2.822-3.471v0c-0.711-0.369-1.46-0.585-2.246-0.648-0.79-0.057-1.584 0.046-2.382 0.309-0.798 0.263-1.568 0.69-2.312 1.281-0.743 0.592-1.425 1.354-2.044 2.289z" fill="black"></path><path d="M113.46 277.389l-3.739-0.698 4.133-22.148 3.099 0.579-0.28 3.246 0.138 0.026c1.261-0.864 2.545-1.544 3.853-2.04 1.301-0.497 2.726-0.601 4.273-0.313v0c2.342 0.437 3.918 1.485 4.729 3.143 0.803 1.664 0.938 3.922 0.405 6.775v0l-2.62 14.041-3.739-0.698 2.527-13.539c0.392-2.099 0.339-3.673-0.157-4.723-0.496-1.05-1.473-1.71-2.929-1.982v0c-1.154-0.215-2.225-0.117-3.212 0.297-0.993 0.412-2.155 1.074-3.487 1.986v0z" fill="black"></path><path d="M159.868 279.28v0c-1.2 0.14-2.229 0.072-3.087-0.204-0.859-0.276-1.577-0.706-2.156-1.29-0.579-0.584-1.031-1.324-1.357-2.22-0.32-0.897-0.544-1.898-0.673-3.005v0l-1.445-12.388-3.321 0.388-0.332-2.853 3.472-0.637-0.263-6.318 3.171-0.37 0.731 6.263 6.035-0.704 0.359 3.082-6.034 0.704 1.45 12.437c0.161 1.379 0.54 2.416 1.139 3.112 0.591 0.69 1.533 0.96 2.826 0.809v0c0.398-0.046 0.818-0.156 1.261-0.328 0.449-0.18 0.847-0.368 1.194-0.563v0l1.079 2.767c-0.591 0.291-1.238 0.561-1.941 0.81-0.702 0.257-1.405 0.426-2.108 0.508z" fill="black"></path><path d="M188.176 271.64l-3.608 1.204-7.132-21.372 3.608-1.204zM177.808 246.452v0c-0.703 0.234-1.367 0.214-1.994-0.063-0.635-0.28-1.065-0.756-1.288-1.427v0c-0.234-0.703-0.18-1.35 0.163-1.943 0.34-0.585 0.861-0.994 1.564-1.229v0c0.709-0.237 1.375-0.223 1.997 0.04 0.631 0.268 1.064 0.753 1.298 1.456v0c0.224 0.671 0.166 1.309-0.173 1.915-0.335 0.597-0.857 1.014-1.567 1.251z" fill="black"></path><path d="M219.289 255.391v0c-0.879 0.582-1.93 0.971-3.154 1.166-1.22 0.2-2.491 0.198-3.811-0.007v0l-0.117 0.077 1.016 2.113-2.553 1.692-18.237-27.515 3.17-2.101 4.966 7.491 2.172 3.46c0.357-1.309 0.871-2.551 1.543-3.724 0.675-1.168 1.541-2.102 2.597-2.803v0c1.207-0.8 2.424-1.283 3.652-1.448 1.227-0.165 2.434-0.036 3.619 0.388 1.187 0.414 2.331 1.101 3.431 2.06 1.1 0.96 2.128 2.16 3.083 3.601v0c1.058 1.596 1.786 3.171 2.183 4.725 0.397 1.554 0.515 3.017 0.352 4.39-0.167 1.367-0.591 2.605-1.273 3.713-0.68 1.099-1.56 2.007-2.639 2.722zM216.977 253.081v0c0.773-0.512 1.372-1.161 1.796-1.947 0.428-0.78 0.671-1.645 0.729-2.596 0.062-0.946-0.082-1.971-0.431-3.077-0.343-1.109-0.898-2.243-1.665-3.4v0c-0.682-1.029-1.394-1.91-2.136-2.643-0.748-0.729-1.523-1.264-2.324-1.605-0.802-0.341-1.628-0.47-2.478-0.387-0.85 0.083-1.714 0.416-2.593 0.998v0c-1.518 1.006-2.63 2.964-3.336 5.874v0l6.536 9.861c1.299 0.172 2.454 0.139 3.465-0.099 1.007-0.243 1.82-0.57 2.437-0.979z" fill="black"></path><path d="M248.497 227.594v0c-1.506 1.889-3.181 2.797-5.027 2.726-1.845-0.062-3.904-1-6.179-2.814v0l-11.162-8.896 2.402-3.014 10.762 8.579c1.67 1.331 3.08 2.029 4.232 2.093 1.153 0.074 2.193-0.471 3.121-1.634v0c0.732-0.918 1.139-1.916 1.222-2.994 0.088-1.074-0.051-2.447-0.416-4.12v0l-12.507-9.97 2.371-2.974 17.618 14.044-1.965 2.465-2.955-1.946-0.087 0.11c0.308 1.594 0.392 3.073 0.251 4.437-0.139 1.374-0.7 2.676-1.681 3.908z" fill="black"></path><path d="M275.848 198.499v0c-0.179 0.496-0.377 0.935-0.594 1.318-0.223 0.381-0.469 0.717-0.738 1.01v0l-2.581-1.721c0.14-0.212 0.301-0.448 0.48-0.71 0.176-0.27 0.31-0.534 0.403-0.79v0c0.443-1.224 0.377-2.376-0.197-3.457-0.581-1.083-1.448-2.078-2.603-2.985v0l-1.389-1.045-24.309 0.819 1.338-3.699 13.291-0.078c1.044 0.016 2.147 0.028 3.308 0.036 1.167 0.011 2.301 0.034 3.401 0.07v0l0.062-0.169c-0.838-0.665-1.728-1.334-2.669-2.009-0.944-0.668-1.827-1.314-2.652-1.938v0l-10.356-8.035 1.263-3.492 20.042 16.275c0.912 0.756 1.735 1.529 2.471 2.32 0.729 0.789 1.308 1.623 1.735 2.501 0.421 0.876 0.672 1.79 0.754 2.742 0.081 0.952-0.072 1.964-0.46 3.037z" fill="black"></path></g></svg></g></svg></g></svg></g></svg></g><defs><mask></mask></defs></svg><rect width="280" height="280" fill="black" stroke="none" visibility="hidden"></rect></g></mask></svg><rect width="280" height="280" fill="black" stroke="none" visibility="hidden"></rect></g></mask></svg><rect width="280" height="280" fill="black" stroke="none" visibility="hidden"></rect></g></mask><linearGradient x1="0" x2="1" y1="0.578" y2="0.595" id="bedd59e2-52e4-4649-8c7e-5e1497a76996"><stop stop-color="#6ee2f5" offset="0"></stop><stop stop-color="#6454f0" offset="1"></stop></linearGradient><rect width="280" height="280" fill="url(#bedd59e2-52e4-4649-8c7e-5e1497a76996)" mask="url(#774c9a9f-80e9-45a6-b1f7-d0b5c2290751)" data-fill-palette-color="accent"></rect></svg><rect width="280" height="280" fill="none" stroke="none" visibility="hidden"></rect></g></svg></g></svg>